<?xml version="1.0" encoding="UTF-8" standalone="no"?>
<svg width="111px" height="60px" viewBox="0 0 111 60" version="1.1" xmlns="http://www.w3.org/2000/svg" xmlns:xlink="http://www.w3.org/1999/xlink" xmlns:sketch="http://www.bohemiancoding.com/sketch/ns">
    <!-- Generator: bin/sketchtool 1.4 (305) - http://www.bohemiancoding.com/sketch -->
    <title>logo-small</title>
    <desc>Created with bin/sketchtool.</desc>
    <defs></defs>
    <g id="Page-1" stroke="none" stroke-width="1" fill="none" fill-rule="evenodd" sketch:type="MSPage">
        <g id="Dashboard" sketch:type="MSArtboardGroup" transform="translate(-56.000000, -722.000000)" fill="#D6D6D6">
            <g id="footer---in-service" sketch:type="MSLayerGroup" transform="translate(0.000000, 652.000000)">
                <g id="logo-small" transform="translate(56.500000, 70.482877)" sketch:type="MSShapeGroup">
                    <path d="M10.1080149,35.3262035 C9.4772896,36.9570935 7.8509703,37.8558485 5.95824752,37.8558485 C4.46430941,37.8558485 3.20285891,37.3234369 2.14052723,36.2580618 C1.07819554,35.1932385 0.547029703,33.8950368 0.547029703,32.3309051 C0.547029703,30.5339468 1.27731436,29.0029184 2.70506188,27.7383718 C4.16563119,26.4407218 5.82531931,25.8084485 7.71749505,25.8084485 C9.61021782,25.8084485 11.2699059,26.4070668 12.7310223,27.6385101 C14.2249604,28.8699535 14.955245,30.4340851 14.955245,32.3309051 C14.955245,33.5954518 14.623198,34.9267568 13.959104,36.3579235 L10.0751931,44.8445102 C9.67695545,45.7427135 9.4772896,46.6083653 9.4772896,47.4403619 C9.4772896,49.2042169 10.3738713,50.0698686 12.1998564,50.0698686 C13.8929134,50.0698686 15.7850891,49.071252 17.8101931,47.1076736 C17.7768243,46.8748469 17.7768243,46.5416069 17.7768243,46.0759536 C17.7768243,43.7796869 18.1756089,41.4166619 19.005453,39.0536369 C19.835297,36.6911636 20.7647005,34.7937918 21.7942104,33.3962802 C22.8565421,31.9651135 23.7859455,31.2660818 24.549599,31.2660818 C25.8444183,31.2660818 26.6075248,32.3976635 26.6075248,33.8288302 C26.6408936,35.7256502 25.9767995,37.9888135 24.6157896,40.6177685 C23.2547797,43.2472753 21.6279134,45.5766452 19.7023688,47.5402236 C20.0677847,49.1043553 21.1301163,50.0362136 22.690245,50.0362136 C23.9516955,50.0362136 25.1135866,49.5038019 26.1430965,48.4720819 C27.2054282,47.4403619 28.0686411,46.1758153 28.7321881,44.7446486 L34.2101436,32.8302135 C34.5088218,32.1648368 34.8742376,31.4994602 35.2724752,30.8666351 C35.7040817,30.2343618 36.3014381,29.5689851 37.0984604,28.9036085 C37.8954827,28.2376801 38.6919579,27.9049918 39.4889802,27.9049918 C39.9200396,27.9049918 40.4183837,28.0379568 40.9829183,28.3044385 C42.1776312,28.8699535 41.5469059,30.4009818 40.185896,29.8349151 C39.9200396,29.7350535 39.688099,29.6688468 39.4889802,29.6688468 C38.2603515,29.6688468 37.0322698,31.0001518 35.8036411,33.6622102 L30.3262327,45.4767836 C28.3673193,49.7035253 25.8110495,51.8000686 22.5906856,51.8000686 C20.6323193,51.8000686 19.0382748,50.6684869 18.2751683,48.938287 C16.1171361,50.8682103 14.0920322,51.8331719 12.1998564,51.8331719 C9.17861139,51.8331719 7.71749505,49.9694553 7.71749505,47.4072586 C7.71749505,46.3755386 7.98335149,45.2770602 8.54788614,44.0461686 L12.3989752,35.6588918 C12.8967723,34.6277235 13.1292599,33.5292452 13.1292599,32.4313185 C13.1292599,31.0001518 12.5980941,29.8349151 11.5357624,28.9367118 C10.5062525,28.0379568 9.2119802,27.5723035 7.68467327,27.5723035 C6.32366337,27.5723035 5.06221287,28.0379568 3.96651238,28.9367118 C2.87081188,29.8349151 2.30627723,31.0001518 2.30627723,32.3640084 C2.30627723,34.4611035 3.83358416,36.1250969 5.95824752,36.1250969 C7.22024505,36.1250969 8.0167203,35.6588918 8.34876733,34.7606885 C8.91275495,33.1297985 10.6725495,33.9286918 10.1080149,35.3262035 L10.1080149,35.3262035 Z M22.8231733,34.7275852 C22.1262574,35.8255118 21.4287946,37.3234369 20.7980693,39.1534985 C20.1673441,40.9841119 19.7357376,42.7143119 19.5694406,44.4119602 C19.50325,45.1104402 19.669547,44.9774752 19.9682252,44.6116836 C21.3954257,42.8478286 22.5573168,40.9510086 23.5200891,38.8875686 C24.4828614,36.8241285 24.9478366,35.0933768 24.9478366,33.6622102 C24.9478366,33.2296602 24.8149084,33.0299368 24.549599,33.0299368 C24.1179926,33.0299368 23.5200891,33.5954518 22.8231733,34.7275852 L22.8231733,34.7275852 Z" id="Fill-1"></path>
                    <path d="M12.1998564,51.9164819 C9.34217327,51.9164819 7.63544059,50.2304197 7.63544059,47.4072586 C7.63544059,46.3518146 7.9100495,45.2411983 8.4734901,44.0119618 L12.3245792,35.6241333 C12.8043243,34.6299304 13.0472054,33.5557278 13.0472054,32.4307668 C13.0472054,31.0321517 12.5209629,29.8773977 11.4832475,29.0001598 C10.460302,28.106922 9.18244059,27.6550618 7.68467327,27.6550618 C6.34007426,27.6550618 5.10652228,28.1074738 4.0184802,29.0007116 C2.93700248,29.8878804 2.38833168,31.0194621 2.38833168,32.3640084 C2.38833168,34.4611035 3.92329703,36.0417868 5.95824752,36.0417868 C7.17210644,36.0417868 7.9505297,35.600961 8.27163614,34.7314473 C8.48005446,34.1300703 8.8859505,33.7697959 9.3574901,33.7697959 C9.66218564,33.7697959 9.94882921,33.926485 10.1238787,34.1896563 C10.3344851,34.5046895 10.3563663,34.9306189 10.184052,35.3576516 C9.56864356,36.9488177 7.94943564,37.9386068 5.95824752,37.9386068 C4.43859901,37.9386068 3.17058416,37.4078503 2.08254208,36.3165444 C0.99395297,35.2263418 0.464975248,33.9220712 0.464975248,32.3314569 C0.464975248,30.5273261 1.20018317,28.9609876 2.65090594,27.6760272 C4.12788614,26.3634807 5.78538614,25.7256902 7.71749505,25.7256902 C9.65015099,25.7256902 11.307104,26.3309291 12.7835371,27.5750621 C14.2791163,28.8076089 15.0372995,30.4076025 15.0372995,32.3314569 C15.0372995,33.6086931 14.7090817,34.9372395 14.0335,36.3932337 L10.1495891,44.8792687 C9.75791584,45.7614721 9.55934406,46.6238135 9.55934406,47.4403619 C9.55934406,49.1540102 10.423104,49.9871104 12.1998564,49.9871104 C13.8650149,49.9871104 15.7232748,49.0078039 17.7232153,47.0767772 C17.6947698,46.8411919 17.6947698,46.515676 17.6947698,46.0759536 C17.6947698,43.7278251 18.1094183,41.3559725 18.9277748,39.0260508 C19.7641832,36.6448189 20.7067153,34.7342059 21.7280198,33.3466252 C22.7936337,31.9110447 23.7427302,31.1827718 24.549599,31.1827718 C25.8094084,31.1827718 26.6895792,32.2707674 26.6895792,33.8288302 C26.722948,35.7295122 26.0501015,38.0274341 24.6885446,40.6563891 C23.3012772,43.3361025 21.6541708,45.660507 19.7931757,47.5656028 C20.1635149,49.0839416 21.2176411,49.9529036 22.6907921,49.9529036 C23.92325,49.9529036 25.065448,49.4353884 26.0851114,48.4130477 C27.1173564,47.4111207 27.9827574,46.1653325 28.6583391,44.7093384 L34.1357475,32.795455 C34.4229381,32.1549058 34.7823366,31.4906326 35.2030025,30.8224974 C35.6707129,30.1372587 36.2899505,29.4707786 37.0459455,28.8396088 C37.8539084,28.1643011 38.6760941,27.8222335 39.4884332,27.8222335 C39.9315272,27.8222335 40.4451881,27.9590606 41.0173812,28.2294043 C41.6240371,28.5162997 41.751495,29.0139529 41.676552,29.3532619 C41.585745,29.7648464 41.2137649,30.0412591 40.7515248,30.0412591 C40.5622525,30.0412591 40.3614926,29.9976731 40.1547153,29.9116045 C39.8598663,29.8012601 39.6541832,29.7510534 39.4884332,29.7510534 C38.3008317,29.7510534 37.0858787,31.0790481 35.8780371,33.6975204 L30.4000817,45.5115421 C28.4138168,49.7989732 25.8591881,51.8828269 22.5906856,51.8828269 C20.682099,51.8828269 19.0661733,50.835107 18.2467228,49.0734588 C16.113854,50.9597961 14.0794505,51.9164819 12.1998564,51.9164819 L12.1998564,51.9164819 Z M7.68467327,27.4895452 C9.22292079,27.4895452 10.5368861,27.9551985 11.5893713,28.8738155 C12.6653787,29.783605 13.2113144,30.9808416 13.2113144,32.4307668 C13.2113144,33.581107 12.9629629,34.6790337 12.4728243,35.6953055 L8.62228218,44.0809271 C8.06923515,45.2880947 7.7995495,46.376642 7.7995495,47.4072586 C7.7995495,50.126696 9.44446782,51.7504136 12.1998564,51.7504136 C14.0630396,51.7504136 16.0886906,50.7832451 18.2204653,48.8759424 L18.3041609,48.8009082 L18.3501114,48.9046319 C19.1268936,50.6657283 20.7121856,51.7167586 22.5906856,51.7167586 C25.7891683,51.7167586 28.2951114,49.664353 30.2518366,45.4414734 L35.729245,33.6274517 C36.9666262,30.9455314 38.2313589,29.5860885 39.4884332,29.5860885 C39.6744233,29.5860885 39.8981584,29.6385021 40.2143416,29.7571223 C40.4041609,29.8360186 40.5841337,29.8757425 40.7515248,29.8751908 C41.1415569,29.8751908 41.4413292,29.6561572 41.5162723,29.3173999 C41.5780866,29.0376769 41.4664926,28.6244372 40.9479084,28.3794727 C40.3981436,28.1196116 39.9069109,27.9877501 39.4884332,27.9877501 C38.7149332,27.9877501 37.9283045,28.3171281 37.1509752,28.9670565 C36.4064678,29.5888471 35.7976238,30.2431893 35.3397599,30.9135315 C34.9251114,31.5733909 34.5695421,32.2304917 34.2850866,32.8644202 L28.8071312,44.7794071 C28.122797,46.2536081 27.2459084,47.5159478 26.1999876,48.5316679 C25.1496906,49.5843533 23.9681064,50.1189719 22.6907921,50.1189719 C21.1208168,50.1189719 20.0026881,49.1854584 19.6225025,47.5589821 L19.6121089,47.5142927 L19.6443837,47.4817411 C21.5070198,45.5821625 23.1552203,43.2599649 24.5430347,40.5796997 C25.8914629,37.9750205 26.5582921,35.7046847 26.5254703,33.8299336 C26.5254703,32.3452499 25.7317302,31.3488401 24.549599,31.3488401 C23.7974332,31.3488401 22.892646,32.0544924 21.859854,33.4459352 C20.847849,34.8197228 19.9135223,36.715991 19.0825842,39.081223 C18.2707921,41.3934896 17.8588787,43.7465836 17.8588787,46.0759536 C17.8588787,46.5366414 17.8588787,46.868778 17.8911535,47.0955357 L17.8971708,47.1380183 L17.8670842,47.1672596 C15.8239282,49.1479413 13.9169827,50.1526269 12.1998564,50.1526269 C10.3388614,50.1526269 9.39523515,49.2400789 9.39523515,47.4403619 C9.39523515,46.6006411 9.5987302,45.7156792 10.00025,44.8108552 L13.8847079,36.3237167 C14.549896,34.8897914 14.8731906,33.5838656 14.8731906,32.3314569 C14.8731906,30.4600161 14.1347005,28.9025051 12.6790545,27.7025099 C11.2327079,26.4832044 9.60967079,25.8912068 7.71749505,25.8912068 C5.8269604,25.8912068 4.20501733,26.515756 2.75921782,27.8007164 C1.34569307,29.0525734 0.629084158,30.5769811 0.629084158,32.3314569 C0.629084158,33.8757265 1.14219802,35.1408249 2.19851238,36.1990276 C3.2542797,37.257782 4.48400248,37.7725385 5.95824752,37.7725385 C7.87996287,37.7725385 9.44118564,36.8235768 10.0314307,35.2964105 C10.1856931,34.9146189 10.1698292,34.5548962 9.98766832,34.2817939 C9.84325248,34.0644154 9.60748267,33.9353125 9.3574901,33.9353125 C8.95870545,33.9353125 8.61079455,34.2542078 8.42589851,34.7882746 C8.07798762,35.7306157 7.24814356,36.2078551 5.95824752,36.2078551 C3.82975495,36.2078551 2.22422277,34.555448 2.22422277,32.3640084 C2.22422277,30.9670485 2.79313366,29.7918808 3.91454455,28.8727121 C5.0332203,27.9546468 6.30178218,27.4895452 7.68467327,27.4895452 L7.68467327,27.4895452 Z M19.6383663,44.9945786 L19.6383663,44.9945786 C19.6000743,44.9945786 19.5639703,44.9780269 19.5371658,44.9487857 C19.4895743,44.8958204 19.4507351,44.7937518 19.4879332,44.4036844 C19.6443837,42.805346 20.0475446,41.0790081 20.7203911,39.1264642 C21.3314233,37.3532299 22.0343564,35.8166843 22.7537005,34.682344 C23.4533515,33.5480037 24.0742302,32.9471785 24.549599,32.9471785 C24.8679703,32.9471785 25.0298911,33.1877293 25.0298911,33.6627619 C25.0298911,35.1121354 24.5468639,36.8820593 23.5944851,38.922327 C22.6016262,41.0503185 21.436453,42.92838 20.0316807,44.6635454 C19.852802,44.8831308 19.742849,44.9945786 19.6383663,44.9945786 L19.6383663,44.9945786 Z M24.549599,33.1132468 C24.3121881,33.1132468 23.7815693,33.3278667 22.892646,34.7706195 C22.1798663,35.8950288 21.4824035,37.4194365 20.8757475,39.1805329 C20.2072772,41.1209389 19.8063045,42.835139 19.651495,44.4202361 C19.6252376,44.6949936 19.6411015,44.7915449 19.6520421,44.8235448 C19.6843168,44.8058897 19.7554307,44.74189 19.9047698,44.5587183 C21.3007896,42.8345872 22.4588515,40.9675602 23.4456931,38.8522584 C24.3876782,36.8335078 24.8657822,35.0878596 24.8657822,33.6627619 C24.8657822,33.1755914 24.69675,33.1132468 24.549599,33.1132468 L24.549599,33.1132468 Z" id="Fill-2"></path>
                    <path d="M31.7211584,47.4734652 C31.7211584,46.9079503 31.8874554,46.2756769 32.1861337,45.6097486 L34.6756658,40.3518386 C35.838104,37.9220552 37.2653045,36.7242669 38.9583614,36.7242669 C40.7843465,36.7242669 41.880047,37.6230219 41.880047,39.2533602 C41.880047,39.8525302 41.71375,40.4848035 41.381703,41.1501802 L38.9255396,46.3755386 C37.7631015,48.8047703 36.335901,50.0031103 34.6428441,50.0031103 C32.8168589,50.0031103 31.7211584,49.1043553 31.7211584,47.4734652 L31.7211584,47.4734652 Z M34.6428441,48.2723586 C35.6056163,48.2723586 36.5350198,47.3736036 37.3982327,45.5435419 L39.7887525,40.3518386 C40.3527401,39.0867402 40.0540619,38.4544668 38.9583614,38.4544668 C38.2614455,38.4544668 37.6307203,38.8208102 37.0995545,39.6191518 C36.6012104,40.4180452 36.6012104,40.4517002 36.2029728,41.2500419 L33.812453,46.3755386 C33.6138812,46.7749853 33.5137748,47.1407769 33.5137748,47.4734652 C33.5137748,48.0064286 33.8791906,48.2723586 34.6428441,48.2723586 L34.6428441,48.2723586 Z" id="Fill-3"></path>
                    <path d="M34.6428441,50.0858686 C32.7337104,50.0858686 31.639104,49.1335965 31.639104,47.4734652 C31.639104,46.9118123 31.7977426,46.2740218 32.1111906,45.5760935 L34.6018168,40.3159766 C35.7680842,37.8773657 37.2341238,36.6409569 38.9583614,36.6409569 C40.867495,36.6409569 41.9621015,37.5937806 41.9621015,39.2533602 C41.9621015,39.8624612 41.7914282,40.5134931 41.455005,41.1871456 L38.9999356,46.4108488 C37.8331213,48.8494597 36.3670817,50.0858686 34.6428441,50.0858686 L34.6428441,50.0858686 Z M38.9583614,36.8070252 C37.3025025,36.8070252 35.8862426,38.0119859 34.7495149,40.3877005 L32.2599827,45.6456105 C31.9569282,46.3203664 31.8032129,46.9355364 31.8032129,47.4734652 C31.8032129,49.0282176 32.8381931,49.9198003 34.6428441,49.9198003 C36.298703,49.9198003 37.7149629,48.7153913 38.8516906,46.339125 L41.307854,41.11487 C41.6333366,40.4621829 41.7979926,39.8365303 41.7979926,39.2533602 C41.7979926,37.6986078 40.7630124,36.8070252 38.9583614,36.8070252 L38.9583614,36.8070252 Z M34.6428441,48.3551169 C33.8392574,48.3551169 33.4317203,48.0582905 33.4317203,47.4734652 C33.4317203,47.1297425 33.5351089,46.7479509 33.739698,46.3380215 L36.2735396,40.9239742 C36.5355668,40.3943211 36.5979282,40.2679768 37.0300817,39.5750141 C37.5617946,38.7761207 38.2100248,38.3717086 38.9583614,38.3717086 C39.4807748,38.3717086 39.8368911,38.5140528 40.0163168,38.7943276 C40.2345817,39.1341883 40.1831609,39.6693585 39.8631485,40.3854936 L37.4726287,45.5783004 C36.6033985,47.4210517 35.6515668,48.3551169 34.6428441,48.3551169 L34.6428441,48.3551169 Z M38.9583614,38.5377769 C38.2685569,38.5377769 37.6657302,38.9168098 37.1673861,39.6654965 C36.74125,40.3496317 36.686,40.4610795 36.4201436,40.9984567 L36.2762748,41.287559 L33.886849,46.4102971 C33.6937475,46.7987093 33.5958292,47.1556734 33.5958292,47.4734652 C33.5958292,47.7807744 33.7041411,48.1896003 34.6428441,48.1896003 C35.5826411,48.1896003 36.4846931,47.287535 37.3243837,45.50768 L39.7138094,40.3165284 C40.0086584,39.6561172 40.0644554,39.1739122 39.8784653,38.8842582 C39.7313144,38.6536385 39.4216955,38.5377769 38.9583614,38.5377769 L38.9583614,38.5377769 Z" id="Fill-4"></path>
                    <path d="M42.7766287,46.3087802 C42.4445817,47.1076736 42.1459035,48.2723586 43.407354,48.2723586 C44.1048168,48.2723586 44.7021733,47.9396703 45.2333391,47.174432 C45.764505,46.4086419 45.764505,46.3087802 46.1293738,45.6434036 C46.3952302,45.1440953 46.760646,45.0111303 47.2584431,45.2108536 C47.7562401,45.3769219 47.9225371,45.7427135 47.7234183,46.2756769 C47.3580025,47.174432 46.760646,48.0064286 45.9969926,48.8047703 C45.2333391,49.6036636 44.3701262,50.0031103 43.407354,50.0031103 C41.5813688,50.0031103 40.6519653,49.1711136 40.6519653,47.5071203 C40.6519653,46.9410536 40.8177153,46.2756769 41.1497624,45.5766452 L48.3207748,30.0015351 C48.8847624,28.8037468 50.6445569,29.2694001 49.9476411,30.7005668 L42.7766287,46.3087802" id="Fill-5"></path>
                    <path d="M43.407354,50.0858686 C41.5244777,50.0858686 40.5699109,49.21801 40.5699109,47.5065686 C40.5699109,46.9173295 40.7449604,46.2381598 41.0759134,45.541335 L48.2463787,29.9667767 C48.5007475,29.4266409 48.9657228,29.2346417 49.3163688,29.2346417 C49.6347401,29.2346417 49.9153663,29.380848 50.0668936,29.6263642 C50.2452252,29.9154665 50.2293614,30.309396 50.0209431,30.7369805 L42.8510248,46.3440904 C42.5441411,47.0811909 42.48725,47.6058785 42.6808985,47.8999463 C42.8078094,48.0924972 43.0523317,48.1896003 43.407354,48.1896003 C44.1042698,48.1896003 44.6627871,47.8519465 45.1660545,47.1269839 C45.5462401,46.579124 45.654005,46.3711248 45.8170198,46.0566433 C45.8821163,45.9314024 45.9559653,45.7890582 46.0577129,45.6031279 C46.3405272,45.071268 46.742047,44.9156824 47.2885297,45.1336125 C47.5483688,45.2202329 47.7283416,45.3631289 47.8196955,45.5556798 C47.9159728,45.7598169 47.9094084,46.0119538 47.8000025,46.3049182 C47.4509975,47.1639492 46.8804455,47.999808 46.0560718,48.8627011 C45.2792896,49.674284 44.3881782,50.0858686 43.407354,50.0858686 L43.407354,50.0858686 Z M49.3163688,29.4001582 C49.0160495,29.4001582 48.6161708,29.56733 48.3946238,30.0368453 L41.2241584,45.6119554 C40.903052,46.2872631 40.7340198,46.942157 40.7340198,47.5065686 C40.7340198,49.1308379 41.6087203,49.9198003 43.407354,49.9198003 C44.3422277,49.9198003 45.1934059,49.5258708 45.9379134,48.7468395 C46.7475173,47.8999463 47.3071287,47.0811909 47.6473812,46.2442288 C47.7398292,45.9970574 47.7480347,45.7885065 47.6719975,45.6268519 C47.6003366,45.4762319 47.4526386,45.3625771 47.2327327,45.2891981 C46.7562698,45.0971989 46.4455569,45.2240949 46.2021287,45.6825759 C46.0998342,45.8679544 46.0270792,46.0091952 45.9630767,46.1327809 C45.7962327,46.4533314 45.6868267,46.6651926 45.3006238,47.22188 C44.771099,47.9849115 44.1518614,48.3551169 43.407354,48.3551169 C42.9937995,48.3551169 42.7033267,48.2331863 42.5446881,47.9920839 C42.3176708,47.6483611 42.3707327,47.07126 42.7011386,46.2773321 L49.872698,30.6652566 C50.055953,30.289534 50.075099,29.9524319 49.927401,29.7135363 C49.8065074,29.5171233 49.577849,29.4001582 49.3163688,29.4001582 L49.3163688,29.4001582 Z" id="Fill-6"></path>
                    <path d="M51.9060074,38.6210869 C51.474401,38.6210869 51.142354,38.8208102 50.976604,39.2202569 L45.2995297,51.6340003 C43.2410569,56.1928786 40.5852277,58.4891453 37.3648639,58.4891453 C34.476547,58.4891453 33.0159777,56.8919103 33.0159777,54.8615736 C33.0159777,53.9964736 33.3480248,53.164477 34.0121188,52.3992386 C34.6756658,51.6340003 35.5388787,51.2340019 36.6012104,51.2008986 C38.0951485,51.2008986 37.9293985,52.9316503 36.6012104,52.9316503 C35.5060569,53.031512 34.8085941,53.9633703 34.8085941,54.8615736 C34.8085941,55.9269487 35.6056163,56.7589453 37.3648639,56.7589453 C39.6558243,56.7589453 42.045797,54.7286086 43.5397351,51.3675186 L49.0838812,39.2202569 C49.2501782,38.8208102 49.11725,38.6210869 48.6856436,38.6210869 L48.619453,38.6210869 C48.1211089,38.5879835 47.8891683,38.3546052 47.8891683,37.9220552 C47.8557995,37.4895052 48.0882871,37.1568169 48.5527153,36.9570935 C48.7190124,36.9239902 48.8519406,36.8903352 49.0176906,36.8903352 L49.4826658,36.8903352 C49.9470941,36.8903352 50.2791411,36.6911636 50.4448911,36.2917169 L51.6073292,33.7957269 C53.5990644,29.5358818 56.354453,26.7403068 59.6410074,26.7403068 C62.5293243,26.7403068 63.9904406,28.3375418 63.9904406,30.3678785 C63.9904406,31.2329785 63.6583936,32.0649752 62.9942995,32.8302135 C62.3302054,33.5954518 61.4669926,33.9954502 60.4046609,34.0285535 C59.1432104,34.0285535 59.2761386,32.2978018 60.4046609,32.2978018 C61.4998144,32.1979401 62.1972772,31.2660818 62.1972772,30.3678785 C62.1972772,29.3025035 61.400802,28.4705068 59.6410074,28.4705068 C58.545854,28.4705068 57.4501535,28.9698151 56.3210842,29.9684318 C55.1925619,30.9664968 54.2297896,32.2978018 53.4661361,33.9286918 L52.3704356,36.2917169 C52.2046856,36.6911636 52.304245,36.8903352 52.7358515,36.8903352 L53.5323267,36.8903352 C54.0306708,36.8903352 54.2959802,37.1237135 54.329349,37.5562635 C54.3627178,38.0219168 54.163599,38.3546052 53.6986238,38.5212252 C53.5656955,38.5879835 53.3999455,38.6210869 53.2336485,38.6210869 L51.9060074,38.6210869" id="Fill-7"></path>
                    <path d="M37.3648639,58.5724553 C34.6729307,58.5724553 32.9339233,57.1153577 32.9339233,54.8621253 C32.9339233,53.9688875 33.2758168,53.1219944 33.9503045,52.3446182 C34.6269802,51.5644834 35.5180916,51.1523471 36.5984752,51.1175886 C36.9567797,51.1175886 37.2527228,51.2135882 37.4567649,51.394553 C37.6411139,51.5578627 37.7423144,51.7829652 37.7423144,52.0284815 C37.7423144,52.5062727 37.3424356,53.0149603 36.6012104,53.0149603 C35.5334084,53.1126151 34.8906485,54.0306804 34.8906485,54.8621253 C34.8906485,55.9981208 35.8156757,56.676187 37.3648639,56.676187 C39.6629356,56.676187 42.0003936,54.6292987 43.4653391,51.3333119 L49.0094851,39.1854984 C49.0576238,39.0701885 49.1024802,38.9107409 49.0412129,38.8174999 C48.9793985,38.7231554 48.8136485,38.7038452 48.6856436,38.7038452 L48.619453,38.7038452 C48.0784406,38.6679832 47.8071139,38.4048119 47.8071139,37.9220552 C47.7710099,37.4591605 48.0177203,37.0966792 48.5209876,36.8815076 L48.6068713,36.8621973 C48.7463639,36.8329561 48.8678045,36.8075769 49.0176906,36.8075769 L49.4826658,36.8075769 C49.9197426,36.8075769 50.2184208,36.6233018 50.369401,36.259717 L51.5329332,33.7604167 C53.7057351,29.1138146 56.5098094,26.6575485 59.6410074,26.6575485 C62.3329406,26.6575485 64.072495,28.1140944 64.072495,30.3678785 C64.072495,31.2611163 63.7300545,32.1080095 63.0555668,32.884834 C62.3794381,33.6649688 61.4883267,34.077105 60.407396,34.1113118 C60.0983243,34.1113118 59.8434084,34.0131053 59.6667178,33.8288302 C59.5113614,33.6655205 59.4254777,33.4415214 59.4254777,33.1993155 C59.4254777,32.722076 59.7690124,32.2150435 60.4046609,32.2150435 C61.4724629,32.1173887 62.1152228,31.1993235 62.1152228,30.3678785 C62.1152228,29.231883 61.1901955,28.5532651 59.6410074,28.5532651 C58.5666411,28.5532651 57.4982921,29.0365735 56.3752401,30.0302247 C55.25,31.0266345 54.2959802,32.3502154 53.5405322,33.964002 L52.4448317,36.3264754 C52.3709827,36.5052333 52.3567599,36.6332327 52.4038045,36.7055083 C52.4486609,36.7733701 52.560255,36.8075769 52.7358515,36.8075769 L53.5323267,36.8075769 C54.2117376,36.8075769 54.385146,37.2108856 54.4108564,37.5496429 C54.4480545,38.0627443 54.2111906,38.4257773 53.7259752,38.5995697 C53.5952351,38.6652246 53.4169035,38.7038452 53.2341955,38.7038452 L51.9060074,38.7038452 C51.4968292,38.7038452 51.2014332,38.8936375 51.0520941,39.251705 L45.3739257,51.6682071 C43.3056064,56.2491543 40.6109381,58.5724553 37.3648639,58.5724553 L37.3648639,58.5724553 Z M36.6012104,51.2836569 C35.5700594,51.3162085 34.7188812,51.7095862 34.0739332,52.4533074 C33.42625,53.2003389 33.0980322,54.0108184 33.0980322,54.8621253 C33.0980322,57.0480476 34.733104,58.406387 37.3648639,58.406387 C40.5409183,58.406387 43.1852599,56.116741 45.2245866,51.5992418 L50.9016609,39.1854984 C51.0750693,38.7695001 51.4322797,38.5383286 51.9060074,38.5383286 L53.2341955,38.5383286 C53.3922871,38.5383286 53.5443614,38.505777 53.6625198,38.4467427 C54.0908441,38.2928123 54.2790223,38.0048135 54.2478416,37.5617808 C54.2172079,37.1656444 53.9830792,36.9736452 53.5323267,36.9736452 L52.7358515,36.9736452 C52.4989876,36.9736452 52.3452723,36.9157144 52.2675941,36.7970942 C52.1866337,36.6751636 52.1953861,36.4986126 52.2949455,36.259717 L53.3917401,33.8939334 C54.1570347,32.2591813 55.1247302,30.9173935 56.2669282,29.9060872 C57.4217079,28.8842982 58.5250668,28.3883002 59.6410074,28.3883002 C61.2930371,28.3883002 62.2798787,29.1281593 62.2798787,30.3678785 C62.2798787,31.2738059 61.5807748,32.2740778 60.4123193,32.3805601 C59.8751361,32.3805601 59.5901337,32.8020757 59.5901337,33.1993155 C59.5901337,33.3984871 59.6590594,33.5816588 59.7854233,33.7135203 C59.9298391,33.8657955 60.1437277,33.9452435 60.4046609,33.9452435 C61.4363589,33.9132436 62.2869901,33.5198659 62.9319381,32.7761447 C63.5801683,32.0302167 63.9078391,31.2197372 63.9078391,30.3678785 C63.9078391,28.1814045 62.2733144,26.8230651 59.6410074,26.8230651 C57.5048564,26.8230651 54.3895223,28.0385085 51.6817252,33.8310371 L50.5192871,36.3264754 C50.3442376,36.7479909 49.9853861,36.9736452 49.4826658,36.9736452 L49.0176906,36.9736452 C48.8842153,36.9736452 48.7709802,36.9968175 48.6396931,37.0238519 L48.5691262,37.0387484 C48.1528366,37.2186097 47.9405891,37.5242637 47.9706757,37.9159862 C47.9712228,38.3181915 48.1730767,38.5079839 48.6249233,38.5388803 L48.6856436,38.5383286 C48.933448,38.5383286 49.0948218,38.5995697 49.1774233,38.7253623 C49.2594777,38.8494997 49.2534604,39.0266025 49.1599183,39.251705 L43.6141312,51.4017254 C42.1234752,54.7567464 39.7285792,56.8417036 37.3648639,56.8417036 C35.7128342,56.8417036 34.7265396,56.1018445 34.7265396,54.8621253 C34.7265396,53.9561979 35.4250965,52.9553743 36.594099,52.8494437 C37.2357649,52.848892 37.5782054,52.4257213 37.5782054,52.0284815 C37.5782054,51.8315168 37.496698,51.650552 37.348453,51.5192422 C37.1750446,51.3653117 36.9162995,51.2836569 36.6012104,51.2836569 L36.6012104,51.2836569 Z" id="Fill-8"></path>
                    <path d="M56.9184406,48.9046319 C56.6197624,49.5369053 56.1881559,49.803387 55.6241683,49.7366286 C55.1925619,49.7035253 54.9600743,49.4706986 54.9600743,49.071252 C54.9600743,48.938287 54.9934431,48.7716669 55.0924554,48.6050469 L58.9107228,40.4180452 C59.1098416,39.9192886 59.209401,39.5529452 59.209401,39.2533602 C59.209401,38.7209485 58.877354,38.4544668 58.2466287,38.4544668 C57.0513688,38.4544668 55.9228465,39.6859102 55.4912401,40.7176302 L52.9677921,46.3087802 C52.469995,47.4734652 50.9432351,50.0031103 48.5860842,50.0031103 C47.5232054,50.0031103 47.5899431,48.2723586 48.5860842,48.2723586 C49.5816782,48.2723586 50.4782599,47.3736036 51.308104,45.6097486 L55.0596337,37.4564019 C55.2253837,37.0569552 55.5246089,36.8572319 55.9556683,36.8572319 C56.3878218,36.8572319 56.6197624,37.0900585 56.6865,37.5226085 C56.9851782,37.1237135 57.7816535,36.7242669 58.4457475,36.7242669 C59.6076386,36.7242669 60.3712921,37.1568169 60.7695297,38.0219168 C61.6327426,37.1568169 62.5293243,36.7242669 63.4920965,36.7242669 C65.1851535,36.7242669 66.1812946,37.6561252 66.1812946,39.2533602 C66.1812946,39.8525302 66.0149975,40.4848035 65.6829505,41.1501802 L63.2929777,46.3087802 C63.0604901,46.7749853 62.9609307,47.174432 62.9609307,47.5071203 C62.9609307,48.0064286 63.2929777,48.2723586 63.923703,48.2723586 C64.8864752,48.2723586 65.7825099,47.4072586 66.6457228,45.6434036 C66.9115792,45.1440953 67.276448,45.0111303 67.7747921,45.2108536 C68.2725891,45.3769219 68.4383391,45.7427135 68.2392203,46.2756769 C67.8743515,47.174432 67.276448,48.0064286 66.5127946,48.8047703 C65.7496881,49.6036636 64.8864752,50.0031103 63.923703,50.0031103 C62.0977178,50.0031103 61.1677673,49.1711136 61.1677673,47.5071203 C61.1677673,46.9410536 61.3340644,46.2756769 61.6661114,45.5766452 L64.089453,40.3518386 C64.2885718,39.8525302 64.3881312,39.4861869 64.3881312,39.2533602 C64.3881312,38.7209485 64.089453,38.4544668 63.4920965,38.4544668 C62.2968366,38.4544668 61.2011361,39.6859102 60.5704109,40.9841119 L56.9184406,48.9046319" id="Fill-9"></path>
                    <path d="M63.923703,50.0858686 C62.0402797,50.0858686 61.0857129,49.21801 61.0857129,47.5065686 C61.0857129,46.9178813 61.2607624,46.2387116 61.5917153,45.541335 L64.0150569,40.3165284 C64.2076114,39.8343234 64.3060767,39.4757041 64.3060767,39.2533602 C64.3060767,38.7650863 64.0473317,38.5377769 63.4915495,38.5377769 C62.2815198,38.5377769 61.2273936,39.8199786 60.6437129,41.0210773 L56.9928366,48.9399421 C56.6837649,49.5948361 56.2215248,49.8861452 55.6143218,49.8193869 C55.1405941,49.7824215 54.8780198,49.5164916 54.8780198,49.0707002 C54.8780198,48.9493214 54.9031832,48.7617359 55.0224356,48.5620126 L58.8363267,40.3832867 C59.0370866,39.8790129 59.1273465,39.5292212 59.1273465,39.2533602 C59.1273465,38.7711552 58.8390619,38.5377769 58.2471757,38.5377769 C57.1487401,38.5377769 56.0213119,39.6627379 55.5667302,40.7501818 L53.0427351,46.3435387 C52.8797203,46.7253303 51.3622599,50.0858686 48.5860842,50.0858686 C48.3185866,50.0858686 48.0953985,49.9849035 47.9405891,49.7929042 C47.8060198,49.6262842 47.7316238,49.4011817 47.7316238,49.1589757 C47.7316238,48.6773225 48.0253787,48.1896003 48.5860842,48.1896003 C49.540104,48.1896003 50.406052,47.3344313 51.2337079,45.5744384 L54.9852376,37.4210917 C55.1635693,36.9929554 55.4906931,36.7739218 55.9556683,36.7739218 C56.3637525,36.7739218 56.6246856,36.9664728 56.7319035,37.3460575 C57.0902079,36.9852313 57.8024406,36.6409569 58.4457475,36.6409569 C59.5791931,36.6409569 60.3680099,37.0586104 60.793052,37.8828829 C61.6546238,37.0475759 62.5386238,36.6409569 63.4915495,36.6409569 C65.2267277,36.6409569 66.263349,37.6180564 66.263349,39.2533602 C66.263349,39.8624612 66.0926757,40.5134931 65.7562525,41.1871456 L63.3668267,46.3440904 C63.151297,46.7766404 63.0429851,47.1667078 63.0429851,47.5065686 C63.0429851,47.960084 63.3389282,48.1896003 63.923703,48.1896003 C64.8552946,48.1896003 65.7217896,47.344914 66.5718738,45.6064382 C66.8579703,45.0701645 67.257849,44.9151306 67.8048787,45.1336125 C68.0647178,45.2202329 68.2446906,45.3631289 68.3360446,45.5556798 C68.4323218,45.7598169 68.4257574,46.0119538 68.3163515,46.3049182 C67.9662525,47.164501 67.3962475,48.0003597 66.5718738,48.8627011 C65.7956386,49.674284 64.9045272,50.0858686 63.923703,50.0858686 L63.923703,50.0858686 Z M63.4915495,38.3717086 C64.3006064,38.3717086 64.4701856,38.8511549 64.4701856,39.2533602 C64.4701856,39.5005316 64.3706262,39.8696336 64.1654901,40.3821833 L61.7399604,45.6119554 C61.419401,46.2878148 61.2503688,46.9427087 61.2503688,47.5065686 C61.2503688,49.1308379 62.1245223,49.9198003 63.923703,49.9198003 C64.8585767,49.9198003 65.709755,49.5258708 66.4531683,48.7468395 C67.2633193,47.900498 67.8223837,47.0822944 68.1631832,46.2442288 C68.2556312,45.9970574 68.2643837,45.7885065 68.1877995,45.6274037 C68.1166856,45.4767836 67.9689876,45.3625771 67.7490817,45.2891981 C67.2726188,45.0977506 66.9619059,45.2246467 66.7179307,45.6825759 C65.8377599,47.4800859 64.9242203,48.3551169 63.923703,48.3551169 C63.2497624,48.3551169 62.8783292,48.0538767 62.8783292,47.5065686 C62.8783292,47.1407769 62.9932054,46.7253303 63.2191287,46.2718149 L65.6085545,41.1154217 C65.9340371,40.4621829 66.0986931,39.8365303 66.0986931,39.2533602 C66.0986931,37.6986078 65.1490495,36.8070252 63.4915495,36.8070252 C62.5544876,36.8070252 61.6825223,37.2235752 60.8269678,38.0809511 L60.7443663,38.1637094 L60.6951337,38.0566753 C60.3078366,37.2152994 59.5720817,36.8070252 58.4457475,36.8070252 C57.7854827,36.8070252 57.0229233,37.2103339 56.7521436,37.5733669 L56.6350792,37.7289525 L56.6055396,37.5358498 C56.5426312,37.1292308 56.335854,36.9399901 55.9556683,36.9399901 C55.5568837,36.9399901 55.2888391,37.1192998 55.1351238,37.48785 L51.3825,45.6450588 C50.5242104,47.4690515 49.6095767,48.3551169 48.5860842,48.3551169 C48.1331436,48.3551169 47.8957327,48.7595291 47.8957327,49.1589757 C47.8957327,49.3636646 47.957,49.55125 48.0675,49.6880771 C48.1905817,49.8398006 48.3694604,49.9198003 48.5860842,49.9198003 C51.2572302,49.9198003 52.7331163,46.6491927 52.892849,46.2762287 L55.416297,40.6834234 C55.8911188,39.5485314 57.0803614,38.3717086 58.2471757,38.3717086 C59.1103886,38.3717086 59.2920025,38.8511549 59.2920025,39.2533602 C59.2920025,39.5518418 59.1973663,39.920392 58.9867599,40.4494933 L55.1668515,48.6403571 C55.0629158,48.8147013 55.0421287,48.9702868 55.0421287,49.0707002 C55.0421287,49.4276643 55.2396064,49.6240773 55.6301856,49.654422 C55.6859827,49.6610427 55.7379505,49.664353 55.7877302,49.664353 C56.2455941,49.664353 56.5918639,49.4039403 56.8445916,48.8693217 L60.4960149,40.9493534 C61.1015767,39.7024618 62.2065767,38.3717086 63.4915495,38.3717086 L63.4915495,38.3717086 Z" id="Fill-10"></path>
                    <path d="M66.1812946,47.4734652 C66.1812946,46.9079503 66.3475916,46.2756769 66.6462698,45.6097486 L69.135802,40.3518386 C70.2982401,37.9220552 71.7254406,36.7242669 73.4184975,36.7242669 C75.2444827,36.7242669 76.3401832,37.6230219 76.3401832,39.2533602 C76.3401832,39.8525302 76.1738861,40.4848035 75.8418391,41.1501802 L73.3851287,46.3755386 C72.2232376,48.8047703 70.7960371,50.0031103 69.1029802,50.0031103 C67.276995,50.0031103 66.1812946,49.1043553 66.1812946,47.4734652 L66.1812946,47.4734652 Z M69.1029802,48.2723586 C70.0657525,48.2723586 70.9951559,47.3736036 71.8583688,45.5435419 L74.2483416,40.3518386 C74.8128762,39.0867402 74.514198,38.4544668 73.4184975,38.4544668 C72.7215817,38.4544668 72.0908564,38.8208102 71.5596906,39.6191518 C71.0613465,40.4180452 71.0613465,40.4517002 70.6631089,41.2500419 L68.2725891,46.3755386 C68.0740173,46.7749853 67.9739109,47.1407769 67.9739109,47.4734652 C67.9739109,48.0064286 68.3393267,48.2723586 69.1029802,48.2723586 L69.1029802,48.2723586 Z" id="Fill-11"></path>
                    <path d="M69.1029802,50.0858686 C67.1943936,50.0858686 66.0992401,49.1335965 66.0992401,47.4734652 C66.0992401,46.9112606 66.2584257,46.2729183 66.5713267,45.5760935 L69.0614059,40.3159766 C70.2287673,37.8773657 71.6937129,36.6409569 73.4184975,36.6409569 C75.3270842,36.6409569 76.4222376,37.5937806 76.4222376,39.2533602 C76.4222376,39.8624612 76.2521114,40.5134931 75.9151411,41.1871456 L73.4595248,46.4108488 C72.2927104,48.8494597 70.8277649,50.0858686 69.1029802,50.0858686 L69.1029802,50.0858686 Z M73.4184975,36.8070252 C71.7620916,36.8070252 70.3469257,38.0119859 69.209651,40.3877005 L66.7206658,45.6456105 C66.4176114,46.3198147 66.263896,46.9349846 66.263896,47.4734652 C66.263896,49.0282176 67.2983292,49.9198003 69.1029802,49.9198003 C70.7593861,49.9198003 72.175099,48.7153913 73.3118267,46.339125 L75.7679901,41.11487 C76.0934728,40.4621829 76.2575817,39.8365303 76.2575817,39.2533602 C76.2575817,37.6986078 75.2231485,36.8070252 73.4184975,36.8070252 L73.4184975,36.8070252 Z M69.1029802,48.3551169 C68.2988465,48.3551169 67.8913094,48.0582905 67.8913094,47.4734652 C67.8913094,47.1297425 67.995245,46.7479509 68.1998342,46.3380215 L70.7342228,40.9228708 C70.99625,40.3937694 71.0580644,40.2674251 71.4902178,39.5750141 C72.0219307,38.7761207 72.6707079,38.3717086 73.4184975,38.3717086 C73.9409109,38.3717086 74.2964802,38.5140528 74.476453,38.7943276 C74.6941708,39.1341883 74.64275,39.6693585 74.3232847,40.3854936 L71.9322178,45.5783004 C71.0635347,47.4210517 70.111703,48.3551169 69.1029802,48.3551169 L69.1029802,48.3551169 Z M73.4184975,38.5377769 C72.728146,38.5377769 72.1258663,38.9168098 71.6280693,39.6654965 C71.2013861,40.34908 71.1466832,40.4605278 70.8808267,40.9968015 L70.7364109,41.287559 L68.3469851,46.4102971 C68.1533366,46.7987093 68.0559653,47.1556734 68.0559653,47.4734652 C68.0559653,47.7807744 68.1642772,48.1896003 69.1029802,48.1896003 C70.0433243,48.1896003 70.9448292,47.287535 71.7839728,45.50768 L74.1744926,40.3165284 C74.4687946,39.6561172 74.5240446,39.1739122 74.3386015,38.8842582 C74.1909035,38.6536385 73.8818317,38.5377769 73.4184975,38.5377769 L73.4184975,38.5377769 Z" id="Fill-12"></path>
                    <path d="M82.3159356,38.6210869 L81.3531634,38.6210869 C80.9215569,38.6210869 80.5895099,38.8208102 80.4237599,39.2202569 L77.2367649,46.3087802 C76.8051584,47.3405003 77.037646,48.2723586 78.1327995,48.2723586 C78.8302624,48.2723586 79.4276188,47.9396703 79.9587847,47.174432 C80.4899505,46.4086419 80.4899505,46.3087802 80.8548193,45.6434036 C81.1206757,45.1440953 81.4855446,45.0111303 81.9838886,45.2108536 C82.4816856,45.3769219 82.6479827,45.7427135 82.4483168,46.2756769 C82.083448,47.1076736 81.5189134,47.9060152 80.7224381,48.7049086 C79.9587847,49.4706986 79.0955718,49.9032486 78.1327995,50.0031103 C76.2739926,50.1691786 75.1115545,49.2042169 75.1115545,47.5071203 C75.1115545,47.0078119 75.2778515,46.3755386 75.6098985,45.6434036 L78.5644059,39.2202569 C78.7301559,38.8208102 78.6639653,38.6210869 78.4314777,38.6210869 C77.9336807,38.6210869 77.6683713,38.3882602 77.6350025,37.9557102 C77.6016337,37.4895052 77.8341213,37.1568169 78.2657277,36.9901968 C78.3986559,36.9239902 78.5644059,36.8903352 78.7301559,36.8903352 L78.8630842,36.8903352 C79.3280594,36.8903352 79.6267376,36.6911636 79.7930347,36.2917169 L81.0544851,33.6291068 C81.6184728,32.4313185 83.3782673,32.8969718 82.6808045,34.3281385 L81.751401,36.2917169 C81.585651,36.6911636 81.7180322,36.8903352 82.1496386,36.8903352 L82.6146139,36.8903352 C83.0795891,36.8903352 83.3448985,37.1237135 83.3782673,37.5562635 C83.4116361,38.0550202 83.2119703,38.3882602 82.7475421,38.5543285 L82.3159356,38.6210869" id="Fill-13"></path>
                    <path d="M77.7290916,50.1046271 C76.9101881,50.1046271 76.2280421,49.8657315 75.7554084,49.4133195 C75.2805866,48.9587007 75.0295,48.299393 75.0295,47.5065686 C75.0295,46.9873982 75.2001733,46.3490559 75.5349554,45.6086451 L78.4900099,39.1849467 C78.6109035,38.8941892 78.5731584,38.7843966 78.5512772,38.7507415 C78.5436188,38.7397071 78.5200965,38.7038452 78.4314777,38.7038452 C77.7526139,38.7038452 77.5786584,38.3005364 77.553495,37.9623309 C77.5179381,37.4685398 77.7608193,37.0961274 78.2367351,36.9129558 C78.3691163,36.8461974 78.546901,36.8075769 78.730703,36.8075769 L78.8630842,36.8075769 C79.2897673,36.8075769 79.5610941,36.6332327 79.7169975,36.259717 L80.9800891,33.5937966 C81.2339109,33.0542126 81.6994332,32.8622134 82.0495322,32.8622134 C82.3684505,32.8622134 82.6490767,33.0084197 82.8000569,33.2533842 C82.9789356,33.5430382 82.9625248,33.9375194 82.7546535,34.3645522 L81.825797,36.3270271 C81.7782054,36.4412335 81.732802,36.6012329 81.7940693,36.6944739 C81.8564307,36.7882666 82.0216337,36.8075769 82.1496386,36.8075769 L82.6146139,36.8075769 C83.1233515,36.8075769 83.4231238,37.0707482 83.4597748,37.5496429 C83.4964257,38.093089 83.2655792,38.4566737 82.7743465,38.632673 L82.3279703,38.7027417 L81.3531634,38.7038452 C80.9439851,38.7038452 80.6485891,38.8936375 80.49925,39.251705 L77.3111609,46.342987 C77.0633564,46.9349846 77.0480396,47.4684997 77.2695866,47.8050501 C77.4347896,48.0566353 77.7334678,48.1896003 78.1327995,48.1896003 C78.8297153,48.1896003 79.3882327,47.8519465 79.8915,47.1269839 C80.2716856,46.579124 80.3799975,46.3711248 80.5424653,46.0566433 C80.6070149,45.9314024 80.6808639,45.7890582 80.7837054,45.6031279 C81.0659728,45.0707162 81.4680396,44.9156824 82.0145223,45.1336125 C82.2738144,45.2202329 82.4537871,45.3631289 82.5451411,45.5556798 C82.6414183,45.7598169 82.634854,46.0119538 82.525448,46.3049182 C82.1507327,47.1589837 81.5801807,47.9617391 80.7798762,48.7639428 C80.0063762,49.5396639 79.1190941,49.9843517 78.141552,50.0853169 C78.0004183,50.0980065 77.8620198,50.1046271 77.7290916,50.1046271 L77.7290916,50.1046271 Z M78.730703,36.9736452 C78.5720644,36.9736452 78.4194431,37.0056451 78.3023787,37.0646793 C77.8871832,37.2252304 77.6869703,37.5297809 77.7165099,37.9496413 C77.7471436,38.3457776 77.9812723,38.5383286 78.4314777,38.5383286 C78.5775347,38.5383286 78.6513837,38.6045352 78.6880347,38.6591557 C78.768448,38.7821897 78.7525842,38.9813613 78.6404431,39.251705 L75.6837475,45.6781621 C75.3637351,46.3854696 75.1941559,47.0182946 75.1941559,47.5065686 C75.1941559,48.2530483 75.4271906,48.8709769 75.8686436,49.2935959 C76.3828515,49.7857319 77.1760446,50.0042137 78.1251411,49.920352 C79.063297,49.8238007 79.9183045,49.394561 80.664453,48.6464261 C81.4499876,47.8585671 82.009052,47.0723634 82.3739208,46.2425736 C82.4652748,45.9970574 82.4740272,45.7885065 82.3974431,45.6274037 C82.3257822,45.4767836 82.1786312,45.3625771 81.9581782,45.2891981 C81.4822624,45.0988541 81.1715495,45.2240949 80.9275743,45.6825759 C80.8258267,45.8679544 80.7525248,46.0091952 80.6879752,46.1327809 C80.5216782,46.4533314 80.4122723,46.6651926 80.0260693,47.22188 C79.4965446,47.9849115 78.8773069,48.3551169 78.1327995,48.3551169 C77.6754827,48.3551169 77.3297599,48.196221 77.1328292,47.8971877 C76.8801015,47.5131892 76.890495,46.9228468 77.1607277,46.2767804 L80.3488168,39.1860501 C80.5222252,38.7695001 80.8794356,38.5383286 81.3531634,38.5383286 L82.3159356,38.5383286 L82.7349604,38.4726737 C83.1441386,38.3248122 83.3273936,38.0340547 83.2967599,37.561229 C83.2666733,37.1711616 83.0374678,36.9736452 82.6146139,36.9736452 L82.1496386,36.9736452 C81.9018342,36.9736452 81.7410074,36.9118523 81.6573119,36.7860597 C81.5747104,36.6602671 81.5807277,36.4881299 81.6759109,36.259717 L82.6069554,34.2922766 C82.7896634,33.9176574 82.8088094,33.5800036 82.6611114,33.3416597 C82.5402178,33.144695 82.3115594,33.0277299 82.0495322,33.0277299 C81.7492129,33.0277299 81.3498812,33.1949017 81.1288812,33.6649688 L79.8668837,36.3270271 C79.6863639,36.7606805 79.357599,36.9736452 78.8630842,36.9736452 L78.730703,36.9736452 L78.730703,36.9736452 Z" id="Fill-14"></path>
                    <path d="M88.0258317,30.0015351 C88.5903663,28.8037468 90.3501609,29.2694001 89.652698,30.7005668 L86.3661436,37.3896435 C86.9306782,36.9239902 87.4618441,36.6911636 88.0258317,36.6911636 C89.5865074,36.6911636 90.5159109,37.6892285 90.5159109,39.2533602 C90.5159109,39.8525302 90.3501609,40.4848035 90.0181139,41.1501802 L87.5947723,46.3418836 C87.3951064,46.7749853 87.295547,47.174432 87.295547,47.5071203 C87.295547,48.0064286 87.6275941,48.2723586 88.2583193,48.2723586 C88.9557822,48.2723586 89.5531386,47.9396703 90.0843045,47.174432 C90.6154703,46.4086419 90.6154703,46.3087802 90.9808861,45.6434036 C91.2461955,45.1440953 91.6116114,45.0111303 92.1094084,45.2108536 C92.6077525,45.3769219 92.7735025,45.7427135 92.5743837,46.2756769 C92.2089678,47.174432 91.6116114,48.0064286 90.8479579,48.8047703 C90.0843045,49.6036636 89.2210916,50.0031103 88.2583193,50.0031103 C86.4323342,50.0031103 85.5029307,49.1711136 85.5029307,47.5071203 C85.5029307,46.9410536 85.6692277,46.2756769 86.0012748,45.5766452 L88.4246163,40.3518386 C88.6237351,39.8525302 88.7232946,39.4861869 88.7232946,39.2533602 C88.7232946,38.7209485 88.3578787,38.4544668 87.5947723,38.4544668 C86.4990718,38.4544668 85.5362995,39.5860485 85.0385025,40.6514236 L82.4816856,46.3087802 C81.9838886,47.4734652 80.4565817,50.0031103 78.0999777,50.0031103 C76.9380866,50.0031103 77.1038366,48.2723586 78.0999777,48.2723586 C79.1289406,48.2723586 80.0249752,47.4072586 80.8553663,45.6434036 L88.0258317,30.0015351" id="Fill-15"></path>
                    <path d="M88.2583193,50.0858686 C86.374896,50.0858686 85.4203292,49.21801 85.4203292,47.5065686 C85.4203292,46.9178813 85.5959257,46.2381598 85.9274257,45.541335 L88.3502203,40.3165284 C88.5427748,39.8332199 88.6412401,39.4746007 88.6412401,39.2533602 C88.6412401,38.9460511 88.5329282,38.5377769 87.5947723,38.5377769 C86.5045421,38.5377769 85.5762327,39.6947377 85.1128985,40.6861821 L82.5566287,46.3435387 C82.3930668,46.7253303 80.8761535,50.0858686 78.0999777,50.0858686 C77.8171634,50.0858686 77.5835817,49.9887655 77.423302,49.8055938 C77.2838094,49.6461462 77.2077723,49.4265609 77.2077723,49.1871136 C77.2077723,48.7038051 77.5201262,48.1896003 78.0999777,48.1896003 C79.0862723,48.1896003 79.9637079,47.344914 80.7809703,45.6075417 L87.9514356,29.9667767 C88.2058045,29.4266409 88.6713267,29.2346417 89.0214257,29.2346417 C89.3403441,29.2346417 89.6209703,29.380848 89.7719505,29.6263642 C89.9508292,29.9154665 89.9344183,30.309396 89.726547,30.7369805 L86.594802,37.1115757 C87.0816584,36.7689563 87.5428045,36.6084053 88.0258317,36.6084053 C89.6122178,36.6084053 90.5979653,37.6219184 90.5979653,39.2533602 C90.5979653,39.8635647 90.4278391,40.5145965 90.0908688,41.1871456 L87.6691683,46.3771938 C87.478255,46.7909852 87.3776015,47.1821561 87.3776015,47.5065686 C87.3776015,47.960084 87.6735446,48.1896003 88.2583193,48.1896003 C88.9546881,48.1896003 89.5137525,47.8519465 90.0170198,47.1269839 C90.3982995,46.5780205 90.5005941,46.3805041 90.6696262,46.0544364 C90.7336287,45.9297473 90.8074777,45.7879547 90.9086782,45.6031279 C91.1925866,45.0707162 91.5930124,44.9156824 92.139495,45.1336125 C92.3993342,45.2202329 92.5793069,45.3631289 92.6706609,45.5556798 C92.7674851,45.7598169 92.7603738,46.0119538 92.6509678,46.3049182 C92.3019629,47.1628458 91.7319579,47.9992562 90.9075842,48.8627011 C90.130802,49.674284 89.2391436,50.0858686 88.2583193,50.0858686 L88.2583193,50.0858686 Z M87.5947723,38.3717086 C88.3983589,38.3717086 88.805896,38.668535 88.805896,39.2533602 C88.805896,39.4994282 88.7057896,39.8685301 88.5001064,40.3821833 L86.0756708,45.6119554 C85.7545644,46.2878148 85.5849851,46.942157 85.5849851,47.5065686 C85.5849851,49.1308379 86.4596856,49.9198003 88.2583193,49.9198003 C89.1931931,49.9198003 90.0443713,49.5258708 90.7888787,48.7468395 C91.5995767,47.8993946 92.1586411,47.0806392 92.4983465,46.2442288 C92.5907946,45.9970574 92.599,45.7885065 92.5229629,45.6268519 C92.451302,45.4762319 92.303604,45.3625771 92.083698,45.2891981 C91.6072351,45.0977506 91.2976163,45.2246467 91.052547,45.6825759 C90.9518936,45.866851 90.8791386,46.0075401 90.8151361,46.1305741 C90.6488391,46.4516762 90.5388861,46.6640892 90.1515891,47.22188 C89.6220644,47.9849115 89.0028267,48.3551169 88.2583193,48.3551169 C87.5843787,48.3551169 87.2134926,48.0538767 87.2134926,47.5065686 C87.2134926,47.1578803 87.3196163,46.7429854 87.5203762,46.3071251 L89.9437178,41.1154217 C90.2692005,40.4632864 90.4333094,39.8376337 90.4333094,39.2533602 C90.4333094,37.723987 89.5110173,36.7739218 88.0258317,36.7739218 C87.4913837,36.7739218 86.9804579,36.9901968 86.4181114,37.454195 L86.1238094,37.6969526 L89.579396,30.6636015 C89.7615569,30.289534 89.780703,29.9524319 89.633005,29.7135363 C89.5121114,29.5171233 89.283453,29.4001582 89.0214257,29.4001582 C88.7211064,29.4001582 88.3212277,29.56733 88.1002277,30.0368453 L80.9292153,45.6776104 C80.0818663,47.4800859 79.1562921,48.3551169 78.0999777,48.3551169 C77.626797,48.3551169 77.3718812,48.7838048 77.3718812,49.1871136 C77.3718812,49.3862852 77.4336955,49.56725 77.5469307,49.6963529 C77.6743886,49.8431109 77.865849,49.9198003 78.0999777,49.9198003 C80.7711238,49.9198003 82.2470099,46.6491927 82.4067426,46.2762287 L84.9635594,40.6166651 C85.4482277,39.5805313 86.4274109,38.3717086 87.5947723,38.3717086 L87.5947723,38.3717086 Z" id="Fill-16"></path>
                    <path d="M91.5782426,44.1454786 L93.3714059,40.3518386 C94.4999282,37.9220552 95.8943069,36.7242669 97.5206262,36.7242669 C99.1480396,36.7242669 100.077443,37.5562635 100.077443,38.9868785 C100.077443,39.4861869 99.9773366,39.9523919 99.8115866,40.4180452 C98.8159926,43.0470002 97.2553168,44.3788569 95.1306535,44.3788569 C94.9315347,44.3788569 94.5994876,44.3452019 94.1678812,44.2453402 C93.7362748,44.1123752 93.4375965,44.2453402 93.2712995,44.6447869 C92.9064307,45.5435419 92.7406807,46.2089186 92.7406807,46.6083653 C92.7406807,47.6731886 93.3046683,48.2392553 94.4665594,48.2723586 C96.3259134,48.2723586 98.4172079,46.4754003 99.9773366,44.0461686 C101.538012,41.6163852 102.733272,38.8539135 103.397366,36.4577852 C102.301666,35.8922702 101.902881,35.6925469 101.106406,35.0602735 C100.309931,34.3943452 99.9773366,33.6291068 99.9773366,32.6641452 C99.9773366,31.1000135 101.106406,30.1013968 102.467416,30.1013968 C104.426329,30.1013968 105.554851,31.8983551 105.554851,33.9286918 C105.554851,34.1615185 105.488661,34.7275852 105.355733,35.5595819 C107.314646,36.7573702 108.343609,38.0550202 107.646693,40.1852185 L104.924126,46.3087802 C104.592079,47.1076736 104.293401,48.2723586 105.554851,48.2723586 C106.252314,48.2723586 106.849671,47.9396703 107.380837,47.174432 C107.912002,46.4086419 107.912002,46.3087802 108.277418,45.6434036 C108.542728,45.1440953 108.908144,45.0111303 109.405941,45.2108536 C109.903738,45.3769219 110.070035,45.7427135 109.870916,46.2756769 C109.5055,47.174432 108.908144,48.0064286 108.14449,48.8047703 C107.380837,49.6036636 106.517624,50.0031103 105.554851,50.0031103 C103.728866,50.0031103 102.799463,49.1711136 102.799463,47.5071203 C102.799463,46.8748469 102.96576,46.2425736 103.29726,45.5766452 L105.787339,39.9854952 C106.152755,39.0867402 106.019827,38.3546052 105.421923,37.7559869 C104.924126,37.3234369 104.924126,37.3234369 104.658817,38.0886752 C103.29726,42.0158319 101.006847,46.5752619 97.7202921,48.8715286 C94.4999282,51.134692 90.6822079,49.8364903 90.8479579,46.7749853 C90.8479579,46.0759536 91.0804455,45.1771986 91.5782426,44.1454786 L91.5782426,44.1454786 Z M97.5206262,38.4544668 C96.6245916,38.3215019 95.8281163,39.0867402 95.1306535,40.7176302 L94.699047,41.6831436 C94.4665594,42.2486586 94.699047,42.5482436 95.3631411,42.5482436 C96.392104,42.5482436 97.2553168,41.7824535 97.8860421,40.2519769 C98.3510173,39.1534985 98.2180891,38.5543285 97.5206262,38.4544668 L97.5206262,38.4544668 Z M101.7705,32.6641452 C101.7705,33.2296602 102.301666,33.7957269 103.397366,34.4280002 C103.795604,34.5940685 103.828426,34.5278619 103.828426,33.9954502 C103.828426,32.8302135 103.363998,31.8321485 102.467416,31.8321485 C102.102547,31.8321485 101.7705,32.1317335 101.7705,32.6304901 L101.7705,32.6641452 L101.7705,32.6641452 Z" id="Fill-17"></path>
                    <path d="M94.330349,50.0991099 C93.1903391,50.0991099 92.2013094,49.7134563 91.5443267,49.0138729 C90.9874505,48.4213235 90.7188589,47.6450508 90.7664505,46.7705715 C90.7659035,46.0323676 91.0213663,45.1104402 91.5043936,44.1096166 L93.2970099,40.3159766 C94.4299084,37.8773657 95.8510916,36.6409569 97.5206262,36.6409569 C99.1978193,36.6409569 100.159498,37.4961258 100.159498,38.9868785 C100.159498,39.4586008 100.070879,39.9363919 99.8892649,40.4467347 C98.879448,43.1109999 97.2788391,44.4616152 95.1306535,44.4616152 C94.8790198,44.4616152 94.5212624,44.4119602 94.1492822,44.3264433 C93.7384629,44.1995473 93.4972228,44.3159606 93.3478837,44.6767868 C93.0087252,45.5093352 92.8227351,46.1951255 92.8227351,46.6078135 C92.8227351,47.640637 93.3610124,48.1576004 94.4687475,48.1896003 C96.1639926,48.1896003 98.2492698,46.5846412 99.9089579,44.0009274 C101.364057,41.7355572 102.598156,39.0050853 103.299995,36.5002678 L103.276473,36.4886816 C102.230005,35.9479941 101.837785,35.7460639 101.055532,35.1253767 C100.263433,34.4638621 99.8952822,33.6820721 99.8952822,32.6641452 C99.8952822,31.1314617 100.977307,30.0180868 102.467416,30.0180868 C104.548317,30.0180868 105.636906,31.9855272 105.636906,33.9286918 C105.636906,34.1708978 105.566886,34.7485506 105.445446,35.517651 C107.100757,36.5377849 108.508265,37.8177797 107.724371,40.2111495 L104.999069,46.342987 C104.692186,47.0811909 104.6342,47.6058785 104.828943,47.900498 C104.955307,48.0924972 105.199282,48.1896003 105.554851,48.1896003 C106.25122,48.1896003 106.810285,47.8519465 107.313552,47.1269839 C107.694832,46.5780205 107.797126,46.3805041 107.966158,46.0544364 C108.030161,45.9297473 108.10401,45.7879547 108.205757,45.6031279 C108.487478,45.071268 108.889545,44.9151306 109.436574,45.1336125 C109.695866,45.2202329 109.875839,45.3631289 109.967193,45.5556798 C110.06347,45.7598169 110.056906,46.0119538 109.9475,46.3049182 C109.598495,47.1633975 109.029037,47.9992562 108.203569,48.8627011 C107.427334,49.674284 106.536223,50.0858686 105.554851,50.0858686 C103.671975,50.0858686 102.717408,49.21801 102.717408,47.5065686 C102.717408,46.8665711 102.883158,46.2232633 103.223958,45.5396799 L105.712943,39.9512884 C106.05976,39.0977746 105.945978,38.3981912 105.364485,37.8144694 C105.194359,37.6671596 105.056507,37.5468843 104.996334,37.5468843 C104.933426,37.5468843 104.846448,37.7979177 104.735948,38.1157096 C103.718473,41.0503185 101.460881,46.3589869 97.7667896,48.9393904 C96.6875,49.6980081 95.4993515,50.0991099 94.330349,50.0991099 L94.330349,50.0991099 Z M97.5206262,36.8070252 C95.9205644,36.8070252 94.5491609,38.0114341 93.445255,40.386597 L91.6526386,44.1813405 C91.180005,45.1600952 90.9305594,46.0566433 90.9305594,46.7744336 C90.8851559,47.6075337 91.1384307,48.3413238 91.6630322,48.9002182 C92.2888342,49.5666982 93.2357426,49.9335933 94.330349,49.9335933 C95.4659827,49.9335933 96.6218564,49.5429742 97.6732475,48.8036668 C101.3285,46.249746 103.570228,40.9774912 104.581139,38.0610891 C104.747983,37.5799876 104.816908,37.3813677 104.996334,37.3813677 C105.117228,37.3813677 105.237027,37.4850914 105.475532,37.6930906 C106.105163,38.3242605 106.234262,39.1043953 105.863376,40.0163916 L103.372203,45.610852 C103.04125,46.2740218 102.881517,46.8930538 102.881517,47.5065686 C102.881517,49.1308379 103.756218,49.9198003 105.554851,49.9198003 C106.489725,49.9198003 107.34145,49.5258708 108.084864,48.7468395 C108.895562,47.8999463 109.455173,47.0811909 109.794879,46.2442288 C109.887327,45.9970574 109.896079,45.7885065 109.819495,45.6274037 C109.747834,45.4767836 109.600683,45.3625771 109.38023,45.2891981 C108.904314,45.0977506 108.593054,45.2246467 108.349079,45.6825759 C108.248426,45.866851 108.175671,46.0075401 108.111668,46.1305741 C107.945371,46.4516762 107.835418,46.6640892 107.448121,47.22188 C106.918597,47.9849115 106.299359,48.3551169 105.554851,48.3551169 C105.141297,48.3551169 104.850824,48.2331863 104.692186,47.9920839 C104.465715,47.6483611 104.51823,47.07126 104.848636,46.2773321 L107.571203,40.1510118 C108.178953,38.2950192 107.5258,36.9830245 105.313064,35.6302023 L105.26602,35.6015127 L105.274225,35.5468923 C105.400589,34.7579299 105.472797,34.1686909 105.472797,33.9286918 C105.472797,32.0677338 104.440552,30.1841551 102.467416,30.1841551 C101.07249,30.1841551 100.059938,31.2274613 100.059938,32.6641452 C100.059938,33.6291068 100.408943,34.3700694 101.158921,34.9968255 C101.92695,35.6059265 102.314795,35.8062016 103.351416,36.3413718 L103.494191,36.4147509 L103.476139,36.4798541 C102.773205,39.0183267 101.523243,41.7918328 100.046809,44.0908581 C98.3575817,46.7214682 96.2192426,48.3551169 94.4665594,48.3551169 C93.2658292,48.3209101 92.6580792,47.7333263 92.6580792,46.6078135 C92.6580792,46.1686429 92.8440693,45.4784387 93.1958094,44.6133388 C93.3774233,44.1741681 93.7182228,44.0191342 94.1919505,44.166444 C94.697953,44.283409 95.0168713,44.2955469 95.1306535,44.2955469 C97.203896,44.2955469 98.7525371,42.9813453 99.7350025,40.3888039 C99.9122401,39.8917025 99.9948416,39.4453594 99.9948416,38.9868785 C99.9948416,37.600953 99.0933366,36.8070252 97.5206262,36.8070252 L97.5206262,36.8070252 Z M95.3631411,42.6315536 C94.9873317,42.6315536 94.7340569,42.5372091 94.6109752,42.3518306 C94.4982871,42.1813485 94.5026634,41.9457632 94.6235569,41.6511437 L95.0562574,40.6839752 C95.7695842,39.0144646 96.6021634,38.2376401 97.5326609,38.372812 C97.8214926,38.4141911 98.0255347,38.5383286 98.1387698,38.7408105 C98.3209307,39.0674299 98.2634926,39.5722555 97.9615322,40.2845285 C97.3198663,41.8414878 96.4457129,42.6315536 95.3631411,42.6315536 L95.3631411,42.6315536 Z M97.3231485,38.5223286 C96.5501955,38.5223286 95.8379629,39.2726705 95.2061436,40.7507335 L94.7739901,41.7167986 C94.6760718,41.9551425 94.6673193,42.1383142 94.7477327,42.2602447 C94.8363515,42.3943131 95.0496931,42.4654853 95.3631411,42.4654853 C96.3729579,42.4654853 97.1967847,41.710178 97.810552,40.219977 C98.087349,39.5667383 98.1491634,39.0961194 97.995995,38.8219136 C97.9079233,38.6641212 97.7487376,38.5708802 97.5091386,38.5366734 C97.4467772,38.5272941 97.3838688,38.5223286 97.3231485,38.5223286 L97.3231485,38.5223286 Z M103.671975,34.5907582 L103.671975,34.5907582 C103.601408,34.5907582 103.515525,34.5664824 103.365639,34.5041378 C102.218517,33.8431749 101.688446,33.2600049 101.688446,32.6641452 L101.688446,32.6310419 C101.688446,32.0583545 102.089965,31.7488385 102.467416,31.7488385 C103.464651,31.7488385 103.911027,32.8771098 103.911027,33.9948985 C103.911027,34.190208 103.906104,34.3204144 103.882582,34.4108968 C103.851401,34.5306205 103.780287,34.5907582 103.671975,34.5907582 L103.671975,34.5907582 Z M102.467416,31.9149068 C102.162173,31.9149068 101.852554,32.1604231 101.852554,32.6310419 L101.852554,32.6641452 C101.852554,33.1871776 102.371139,33.7405547 103.437847,34.3557246 C103.511696,34.3855176 103.61399,34.4257933 103.671975,34.4257933 C103.694403,34.4257933 103.709173,34.4257933 103.723943,34.3684142 C103.743089,34.2961387 103.746371,34.1714495 103.746371,33.9948985 C103.746371,32.9593164 103.351416,31.9149068 102.467416,31.9149068 L102.467416,31.9149068 Z" id="Fill-18"></path>
                    <path d="M101.241522,17.0829661 C100.806634,17.0829661 100.454347,16.7304158 100.454347,16.2945555 L100.454347,10.9693354 C100.454347,10.5340268 100.806634,10.1809248 101.241522,10.1809248 C101.676411,10.1809248 102.029245,10.5340268 102.029245,10.9693354 L102.029245,16.2945555 C102.029245,16.7304158 101.676411,17.0829661 101.241522,17.0829661" id="Fill-19"></path>
                    <path d="M101.241522,17.1657244 C100.762324,17.1657244 100.371745,16.7751053 100.371745,16.2951072 L100.371745,10.9693354 C100.371745,10.4893373 100.762324,10.0981665 101.241522,10.0981665 C101.72072,10.0981665 102.1113,10.4893373 102.1113,10.9693354 L102.1113,16.2951072 C102.1113,16.7751053 101.72072,17.1657244 101.241522,17.1657244 L101.241522,17.1657244 Z M101.241522,10.2636831 C100.852584,10.2636831 100.536401,10.5803715 100.536401,10.9693354 L100.536401,16.2951072 C100.536401,16.6840712 100.852584,17.0007596 101.241522,17.0007596 C101.63046,17.0007596 101.946644,16.6840712 101.946644,16.2951072 L101.946644,10.9693354 C101.946644,10.5803715 101.63046,10.2636831 101.241522,10.2636831 L101.241522,10.2636831 Z" id="Fill-20"></path>
                    <path d="M103.901181,14.4203561 L98.5818639,14.4203561 C98.1469752,14.4203561 97.7941411,14.0672541 97.7941411,13.6324972 C97.7941411,13.1966369 98.1469752,12.8440865 98.5818639,12.8440865 L103.901181,12.8440865 C104.336069,12.8440865 104.688903,13.1966369 104.688903,13.6324972 C104.688903,14.0672541 104.336069,14.4203561 103.901181,14.4203561" id="Fill-21"></path>
                    <path d="M103.901728,14.5031144 L98.5818639,14.5031144 C98.1026658,14.5031144 97.7120866,14.1124953 97.7120866,13.6324972 C97.7120866,13.1519474 98.1026658,12.7613283 98.5818639,12.7613283 L103.901728,12.7613283 C104.380926,12.7613283 104.770958,13.1519474 104.770958,13.6324972 C104.770958,14.1124953 104.380926,14.5031144 103.901728,14.5031144 L103.901728,14.5031144 Z M98.5818639,12.9268448 C98.1929257,12.9268448 97.8767426,13.2429815 97.8767426,13.6324972 C97.8767426,14.0214611 98.1929257,14.3375978 98.5818639,14.3375978 L103.901728,14.3375978 C104.290119,14.3375978 104.606849,14.0214611 104.606849,13.6324972 C104.606849,13.2429815 104.290119,12.9268448 103.901728,12.9268448 L98.5818639,12.9268448 L98.5818639,12.9268448 Z" id="Fill-22"></path>
                    <path d="M102.61949,13.6319455 C102.61949,12.8694658 102.001894,12.2515372 101.240428,12.2515372 C100.478963,12.2515372 99.8613663,12.8694658 99.8613663,13.6319455 C99.8613663,14.3944252 100.478963,15.0129055 101.240428,15.0129055 C102.001894,15.0129055 102.61949,14.3944252 102.61949,13.6319455" id="Fill-23"></path>
                    <path d="M101.240428,15.0956637 C100.4352,15.0956637 99.7787649,14.4391146 99.7787649,13.6324972 C99.7787649,12.825328 100.4352,12.1687789 101.240428,12.1687789 C102.046203,12.1687789 102.701545,12.825328 102.701545,13.6324972 C102.701545,14.4391146 102.046203,15.0956637 101.240428,15.0956637 L101.240428,15.0956637 Z M101.240428,12.3342955 C100.52546,12.3342955 99.9434208,12.9163621 99.9434208,13.6324972 C99.9434208,14.3480805 100.52546,14.9301472 101.240428,14.9301472 C101.955396,14.9301472 102.536889,14.3480805 102.536889,13.6324972 C102.536889,12.9163621 101.955396,12.3342955 101.240428,12.3342955 L101.240428,12.3342955 Z" id="Fill-24"></path>
                    <path d="M10.1200495,11.4338853 C9.68461386,11.4338853 9.33232673,11.0807833 9.33232673,10.6454747 L9.33232673,5.32025458 C9.33232673,4.88494597 9.68461386,4.53184394 10.1200495,4.53184394 C10.5549381,4.53184394 10.9072252,4.88494597 10.9072252,5.32025458 L10.9072252,10.6454747 C10.9072252,11.0807833 10.5549381,11.4338853 10.1200495,11.4338853" id="Fill-25"></path>
                    <path d="M10.1200495,11.5166436 C9.64030446,11.5166436 9.25027228,11.1260245 9.25027228,10.6454747 L9.25027228,5.32025458 C9.25027228,4.83970478 9.64030446,4.44908565 10.1200495,4.44908565 C10.5992475,4.44908565 10.9892797,4.83970478 10.9892797,5.32025458 L10.9892797,10.6454747 C10.9892797,11.1260245 10.5992475,11.5166436 10.1200495,11.5166436 L10.1200495,11.5166436 Z M10.1200495,4.61460223 C9.73111139,4.61460223 9.41438119,4.93073889 9.41438119,5.32025458 L9.41438119,10.6454747 C9.41438119,11.0344386 9.73111139,11.351127 10.1200495,11.351127 C10.5084406,11.351127 10.8251708,11.0344386 10.8251708,10.6454747 L10.8251708,5.32025458 C10.8251708,4.93073889 10.5084406,4.61460223 10.1200495,4.61460223 L10.1200495,4.61460223 Z" id="Fill-26"></path>
                    <path d="M12.7797079,8.77127525 L7.46039109,8.77127525 C7.02495545,8.77127525 6.67266832,8.41817322 6.67266832,7.98286461 C6.67266832,7.54755601 7.02495545,7.19445398 7.46039109,7.19445398 L12.7797079,7.19445398 C13.2145965,7.19445398 13.5668837,7.54755601 13.5668837,7.98286461 C13.5668837,8.41817322 13.2145965,8.77127525 12.7797079,8.77127525" id="Fill-27"></path>
                    <path d="M12.7797079,8.85403354 L7.46039109,8.85403354 C6.98064604,8.85403354 6.59061386,8.46341442 6.59061386,7.98286461 C6.59061386,7.50286653 6.98064604,7.11224741 7.46039109,7.11224741 L12.7797079,7.11224741 C13.2589059,7.11224741 13.6489381,7.50286653 13.6489381,7.98286461 C13.6489381,8.46341442 13.2589059,8.85403354 12.7797079,8.85403354 L12.7797079,8.85403354 Z M7.46039109,7.27721226 C7.07145297,7.27721226 6.75472277,7.59390065 6.75472277,7.98286461 C6.75472277,8.37182858 7.07145297,8.68851696 7.46039109,8.68851696 L12.7797079,8.68851696 C13.168646,8.68851696 13.4848292,8.37182858 13.4848292,7.98286461 C13.4848292,7.59390065 13.168646,7.27721226 12.7797079,7.27721226 L7.46039109,7.27721226 L7.46039109,7.27721226 Z" id="Fill-28"></path>
                    <path d="M11.4980173,7.98286461 C11.4980173,7.22038491 10.8804208,6.60245634 10.1184084,6.60245634 C9.35694307,6.60245634 8.73934653,7.22038491 8.73934653,7.98286461 C8.73934653,8.74534432 9.35694307,9.36327288 10.1184084,9.36327288 C10.8804208,9.36327288 11.4980173,8.74534432 11.4980173,7.98286461" id="Fill-29"></path>
                    <path d="M10.1189554,9.4465829 C9.31318069,9.4465829 8.65783911,8.7900338 8.65783911,7.98286461 C8.65783911,7.17624715 9.31318069,6.51969805 10.1189554,6.51969805 C10.9241832,6.51969805 11.5795248,7.17624715 11.5795248,7.98286461 C11.5795248,8.7900338 10.9241832,9.4465829 10.1189554,9.4465829 L10.1189554,9.4465829 Z M10.1189554,6.68521463 C9.40344059,6.68521463 8.82140099,7.26728127 8.82140099,7.98286461 C8.82140099,8.69899968 9.40344059,9.28106632 10.1189554,9.28106632 C10.8339233,9.28106632 11.4159629,8.69899968 11.4159629,7.98286461 C11.4159629,7.26728127 10.8339233,6.68521463 10.1189554,6.68521463 L10.1189554,6.68521463 Z" id="Fill-30"></path>
                    <path d="M74.8839901,23.4597682 C74.4491015,23.4597682 74.0968144,23.1066662 74.0968144,22.6713576 L74.0968144,17.3461375 C74.0968144,16.9102772 74.4491015,16.5577269 74.8839901,16.5577269 C75.3188787,16.5577269 75.6717129,16.9102772 75.6717129,17.3461375 L75.6717129,22.6713576 C75.6717129,23.1066662 75.3188787,23.4597682 74.8839901,23.4597682" id="Fill-31"></path>
                    <path d="M74.8839901,23.5419748 C74.4047921,23.5419748 74.0142129,23.1513557 74.0142129,22.6713576 L74.0142129,17.3461375 C74.0142129,16.8655877 74.4047921,16.4749686 74.8839901,16.4749686 C75.3631881,16.4749686 75.7532203,16.8655877 75.7532203,17.3461375 L75.7532203,22.6713576 C75.7532203,23.1513557 75.3631881,23.5419748 74.8839901,23.5419748 L74.8839901,23.5419748 Z M74.8839901,16.6404851 C74.495052,16.6404851 74.1788688,16.9566218 74.1788688,17.3461375 L74.1788688,22.6713576 C74.1788688,23.0603215 74.495052,23.3770099 74.8839901,23.3770099 C75.2729282,23.3770099 75.5891114,23.0603215 75.5891114,22.6713576 L75.5891114,17.3461375 C75.5891114,16.9566218 75.2729282,16.6404851 74.8839901,16.6404851 L74.8839901,16.6404851 Z" id="Fill-32"></path>
                    <path d="M77.5436485,20.7966065 L72.2243317,20.7966065 C71.7894431,20.7966065 71.4366089,20.4440561 71.4366089,20.0087475 C71.4366089,19.5734389 71.7894431,19.2203369 72.2243317,19.2203369 L77.5436485,19.2203369 C77.9785371,19.2203369 78.3313713,19.5734389 78.3313713,20.0087475 C78.3313713,20.4440561 77.9785371,20.7966065 77.5436485,20.7966065" id="Fill-33"></path>
                    <path d="M77.5436485,20.8793647 L72.2243317,20.8793647 C71.7451337,20.8793647 71.3545545,20.4887456 71.3545545,20.0087475 C71.3545545,19.5281977 71.7451337,19.1375786 72.2243317,19.1375786 L77.5436485,19.1375786 C78.0228465,19.1375786 78.4134257,19.5281977 78.4134257,20.0087475 C78.4134257,20.4887456 78.0228465,20.8793647 77.5436485,20.8793647 L77.5436485,20.8793647 Z M72.2243317,19.3030952 C71.8353936,19.3030952 71.5192104,19.6192319 71.5192104,20.0087475 C71.5192104,20.3977115 71.8353936,20.7138482 72.2243317,20.7138482 L77.5436485,20.7138482 C77.9325866,20.7138482 78.2487698,20.3977115 78.2487698,20.0087475 C78.2487698,19.6192319 77.9325866,19.3030952 77.5436485,19.3030952 L72.2243317,19.3030952 L72.2243317,19.3030952 Z" id="Fill-34"></path>
                    <path d="M76.2619579,20.0087475 C76.2619579,19.2462678 75.6443614,18.6277875 74.882896,18.6277875 C74.1214307,18.6277875 73.5038342,19.2462678 73.5038342,20.0087475 C73.5038342,20.7712272 74.1214307,21.3891558 74.882896,21.3891558 C75.6443614,21.3891558 76.2619579,20.7712272 76.2619579,20.0087475" id="Fill-35"></path>
                    <path d="M74.882896,21.4719141 C74.0771213,21.4719141 73.4217797,20.815365 73.4217797,20.0087475 C73.4217797,19.2015784 74.0771213,18.5450293 74.882896,18.5450293 C75.6881238,18.5450293 76.3440124,19.2015784 76.3440124,20.0087475 C76.3440124,20.815365 75.6881238,21.4719141 74.882896,21.4719141 L74.882896,21.4719141 Z M74.882896,18.7105458 C74.1679282,18.7105458 73.5864356,19.2926125 73.5864356,20.0087475 C73.5864356,20.7243309 74.1679282,21.3063975 74.882896,21.3063975 C75.5978639,21.3063975 76.1799035,20.7243309 76.1799035,20.0087475 C76.1799035,19.2926125 75.5978639,18.7105458 74.882896,18.7105458 L74.882896,18.7105458 Z" id="Fill-36"></path>
                    <path d="M41.7093738,18.5941325 L41.6978861,18.5941325 C36.1652277,18.5941325 31.9930322,14.6184243 31.9930322,9.34672123 C31.9930322,4.07446646 36.1652277,0.0987582256 41.6978861,0.0987582256 C42.0600198,0.0987582256 42.3800322,0.333240046 42.4883441,0.678617975 C42.597203,1.0239959 42.469745,1.40027026 42.173255,1.60771771 C36.6471609,5.47915049 36.6515371,7.7434173 36.6542723,9.24134234 L36.6542723,9.34672123 C36.6542723,11.1205072 37.7849827,14.7166308 42.0135223,16.9924837 C42.3204059,17.1144143 42.5381238,17.4139993 42.5381238,17.7648944 C42.5381238,18.2228236 42.1672376,18.5941325 41.7093738,18.5941325 L41.7093738,18.5941325 Z M38.6175619,2.29295634 C35.6466436,3.38757265 33.6499851,6.06011369 33.6499851,9.34672123 C33.6499851,12.4645019 35.4475248,15.0300088 38.1695446,16.2195213 C35.8785842,13.9635303 34.9967723,11.301472 34.9967723,9.34672123 L34.9967723,9.24465267 C34.9940371,7.79914121 34.9902079,5.54094335 38.6175619,2.29295634 L38.6175619,2.29295634 Z" id="Fill-37"></path>
                    <path d="M41.7093738,18.6768908 L41.6984332,18.6768908 C36.1181832,18.6768908 31.9109777,14.6658724 31.9109777,9.3461695 C31.9109777,4.02701837 36.1181832,0.015999936 41.6984332,0.015999936 C42.0977649,0.015999936 42.4467698,0.272550634 42.5671163,0.653790488 C42.6869158,1.03558206 42.5474233,1.4466149 42.2197525,1.67613123 C36.7292153,5.52273653 36.7330446,7.76052068 36.7363267,9.24134234 L36.7363267,9.3461695 C36.7363267,11.0962315 37.8560965,14.6603551 42.0523614,16.9196564 C42.3937079,17.0542766 42.6201782,17.3875166 42.6201782,17.7648944 C42.6201782,18.2675131 42.211547,18.6768908 41.7093738,18.6768908 L41.7093738,18.6768908 Z M41.6984332,0.181516515 C36.2117252,0.181516515 32.0745396,4.12136282 32.0745396,9.3461695 C32.0745396,14.5715279 36.2117252,18.5113742 41.6984332,18.5113742 L41.7093738,18.5113742 C42.1212871,18.5113742 42.4560693,18.176479 42.4560693,17.7648944 C42.4560693,17.4559302 42.2706262,17.1833795 41.9834356,17.0697248 C37.7100396,14.7695961 36.5722178,11.1331968 36.5722178,9.3461695 L36.5722178,9.24134234 C36.5694827,7.72631392 36.5645594,5.43611618 42.1262104,1.54040763 C42.394802,1.35227045 42.5085842,1.0162718 42.4101188,0.703997183 C42.3122005,0.391722571 42.0255569,0.181516515 41.6984332,0.181516515 L41.6984332,0.181516515 Z M38.5448069,16.4738651 L38.1367228,16.2956589 C35.3189728,15.0642156 33.5679307,12.4010538 33.5679307,9.3461695 C33.5679307,6.08880323 35.4918342,3.3561245 38.5896634,2.21516355 L38.9950124,2.06564691 L38.6722649,2.3547492 C35.0722624,5.57846044 35.0760916,7.78424472 35.0788267,9.24410095 L35.0788267,9.3461695 C35.0788267,11.6716774 36.2554876,14.2189776 38.2264356,16.1604871 L38.5448069,16.4738651 L38.5448069,16.4738651 Z M38.2286238,2.53736916 C35.4431485,3.7384678 33.7320396,6.30894028 33.7320396,9.3461695 C33.7320396,12.1825719 35.2757574,14.6735965 37.790453,15.9497293 C35.9825198,14.023668 34.9147178,11.5861605 34.9147178,9.3461695 L34.9147178,9.24410095 C34.9119827,7.80189982 34.9081535,5.64521879 38.2286238,2.53736916 L38.2286238,2.53736916 Z" id="Fill-38"></path>
                </g>
            </g>
        </g>
    </g>
</svg>