<?xml version="1.0" encoding="UTF-8" standalone="no"?>
<svg width="146px" height="78px" viewBox="0 0 146 78" version="1.1" xmlns="http://www.w3.org/2000/svg" xmlns:xlink="http://www.w3.org/1999/xlink" xmlns:sketch="http://www.bohemiancoding.com/sketch/ns">
    <!-- Generator: bin/sketchtool 1.4 (305) - http://www.bohemiancoding.com/sketch -->
    <title>logo-big</title>
    <desc>Created with bin/sketchtool.</desc>
    <defs></defs>
    <g id="Page-1" stroke="none" stroke-width="1" fill="none" fill-rule="evenodd" sketch:type="MSPage">
        <g id="Login" sketch:type="MSArtboardGroup" transform="translate(-563.000000, -805.000000)" fill="#FFFFFF">
            <g id="logo-big" sketch:type="MSLayerGroup" transform="translate(563.000000, 805.120000)">
                <path d="M13.3553861,46.6753458 C12.5220297,48.8301869 10.3732277,50.0176822 7.87243564,50.0176822 C5.89854455,50.0176822 4.23183168,49.3142243 2.82820792,47.9065794 C1.42458416,46.4996636 0.722772277,44.7843925 0.722772277,42.717757 C0.722772277,40.3434953 1.68767327,38.3205981 3.57410891,36.6497944 C5.50391089,34.9352523 7.69680198,34.0998505 10.1968713,34.0998505 C12.6976634,34.0998505 14.8905545,34.890785 16.8210792,36.5178505 C18.7949703,38.1449159 19.7598713,40.2115514 19.7598713,42.717757 C19.7598713,44.3885607 19.3211485,46.1475701 18.443703,48.0385234 L13.3120198,59.2515701 C12.7858416,60.4383364 12.5220297,61.5820935 12.5220297,62.6813832 C12.5220297,65.0119065 13.7066535,66.1556636 16.1192673,66.1556636 C18.3562475,66.1556636 20.8563168,64.8362243 23.5320198,62.2418131 C23.4879307,61.9341869 23.4879307,61.4938879 23.4879307,60.8786355 C23.4879307,57.8446542 24.0148317,54.7224673 25.1112772,51.6002804 C26.2077228,48.4788224 27.4357129,45.9718879 28.7959703,44.1254019 C30.1995941,42.2344486 31.4275842,41.3108411 32.4365743,41.3108411 C34.1473762,41.3108411 35.1556436,42.8059626 35.1556436,44.6969159 C35.1997327,47.2031215 34.3222871,50.1933645 32.5240297,53.6669159 C30.7257723,57.1411963 28.5762475,60.2189159 26.0320891,62.8133271 C26.514901,64.8799626 27.9185248,66.1111963 29.9798713,66.1111963 C31.6465842,66.1111963 33.1817525,65.4077383 34.5420099,64.0445607 C35.9456337,62.6813832 37.0861683,61.0105794 37.9628911,59.1196262 L45.2007327,43.3774766 C45.5953663,42.4983364 46.0781782,41.6191963 46.6043564,40.7830654 C47.1746238,39.9476636 47.9638911,39.0685234 49.0169703,38.1893832 C50.0700495,37.309514 51.1224059,36.8699439 52.1754851,36.8699439 C52.7450297,36.8699439 53.4034752,37.0456262 54.1493762,37.3977196 C55.7279109,38.1449159 54.8945545,40.1678131 53.096297,39.4198879 C52.7450297,39.2879439 52.4385743,39.2004673 52.1754851,39.2004673 C50.5521386,39.2004673 48.9295149,40.9594766 47.3061683,44.4767664 L40.0690495,60.086972 C37.480802,65.6716262 34.1032871,68.4417196 29.8483267,68.4417196 C27.260802,68.4417196 25.1546436,66.9465981 24.1463762,64.6605421 C21.2950396,67.210486 18.6193366,68.4854579 16.1192673,68.4854579 C12.127396,68.4854579 10.1968713,66.0229907 10.1968713,62.6376449 C10.1968713,61.2744673 10.5481386,59.8230841 11.2940396,58.1967477 L16.3823564,47.1149159 C17.0400792,45.7524673 17.3472574,44.3010841 17.3472574,42.8504299 C17.3472574,40.9594766 16.6454455,39.4198879 15.2418218,38.2331215 C13.8815644,37.0456262 12.1714851,36.4303738 10.153505,36.4303738 C8.35524752,36.4303738 6.68853465,37.0456262 5.24082178,38.2331215 C3.79310891,39.4198879 3.04720792,40.9594766 3.04720792,42.7614953 C3.04720792,45.5323178 5.06518812,47.7308972 7.87243564,47.7308972 C9.53987129,47.7308972 10.5922277,47.1149159 11.0309505,45.9281495 C11.7761287,43.7733084 14.1012871,44.8288598 13.3553861,46.6753458 L13.3553861,46.6753458 Z M30.155505,45.8844112 C29.2346931,47.3350654 28.3131584,49.3142243 27.479802,51.7322243 C26.6464455,54.1509533 26.0761782,56.4370093 25.8564554,58.6800561 C25.769,59.6029346 25.9887228,59.4272523 26.3833564,58.9439439 C28.2690693,56.6134206 29.8042376,54.107215 31.0763168,51.3808598 C32.348396,48.6545047 32.9627525,46.3677196 32.9627525,44.4767664 C32.9627525,43.9052523 32.7871188,43.6413645 32.4365743,43.6413645 C31.8663069,43.6413645 31.0763168,44.3885607 30.155505,45.8844112 L30.155505,45.8844112 Z" id="Fill-1" sketch:type="MSShapeGroup"></path>
                <path d="M16.1192673,68.5955327 C12.343505,68.5955327 10.0884554,66.3677944 10.0884554,62.6376449 C10.0884554,61.2431215 10.4512871,59.7757009 11.1957426,58.1515514 L16.2840594,47.0689907 C16.9179307,45.7553832 17.2388416,44.3360748 17.2388416,42.8497009 C17.2388416,41.001757 16.5435347,39.4760187 15.1724356,38.3169533 C13.8208515,37.1367477 12.1324554,36.5397196 10.153505,36.5397196 C8.37693069,36.5397196 6.74707921,37.1374766 5.30948515,38.3176822 C3.88056436,39.4898692 3.15562376,40.9849907 3.15562376,42.7614953 C3.15562376,45.5323178 5.18372277,47.6208224 7.87243564,47.6208224 C9.47626733,47.6208224 10.5047723,47.0383738 10.9290396,45.889514 C11.2044158,45.0949346 11.7407129,44.6189159 12.3637426,44.6189159 C12.7663267,44.6189159 13.1450594,44.8259439 13.3763465,45.1736636 C13.6546139,45.5899065 13.6835248,46.1526729 13.4558515,46.7168972 C12.6427327,48.8192523 10.5033267,50.127028 7.87243564,50.127028 C5.86457426,50.127028 4.18918812,49.425757 2.75159406,47.9838505 C1.31327723,46.5434019 0.614356436,44.8201121 0.614356436,42.718486 C0.614356436,40.3347477 1.58576238,38.2651963 3.50255446,36.5674206 C5.4540396,34.8331963 7.6440396,33.9905047 10.1968713,33.9905047 C12.7504257,33.9905047 14.939703,34.7901869 16.8904653,36.4340187 C18.8665248,38.0625421 19.8682871,40.1765607 19.8682871,42.718486 C19.8682871,44.4060561 19.4346238,46.1614206 18.542,48.0851776 L13.4103168,59.2974953 C12.8928119,60.4631215 12.6304455,61.6025047 12.6304455,62.6813832 C12.6304455,64.9455701 13.771703,66.0463178 16.1192673,66.0463178 C18.3193861,66.0463178 20.7746436,64.7523925 23.417099,62.2009907 C23.3795149,61.8897196 23.3795149,61.4596262 23.3795149,60.8786355 C23.3795149,57.7761308 23.9273762,54.6422804 25.0086436,51.5638318 C26.1137624,48.4175888 27.359099,45.8931589 28.7085149,44.0597944 C30.1164752,42.1630093 31.3704851,41.2007664 32.4365743,41.2007664 C34.1011188,41.2007664 35.2640594,42.6382991 35.2640594,44.6969159 C35.3081485,47.2082243 34.4191386,50.2443925 32.6201584,53.7179439 C30.7872079,57.2585607 28.6109406,60.3297196 26.1520693,62.8468598 C26.6413861,64.8529907 28.0341683,66.0011215 29.9805941,66.0011215 C31.609,66.0011215 33.1181485,65.3173458 34.465396,63.9665607 C35.8292673,62.6427477 36.9726931,60.996729 37.8653168,59.072972 L45.1024356,43.3315514 C45.4818911,42.485215 45.9567525,41.6075327 46.5125644,40.7247477 C47.1305347,39.8193645 47.9487129,38.9387664 48.9475842,38.1048224 C50.0151188,37.2125607 51.1014455,36.7605981 52.1747624,36.7605981 C52.7602079,36.7605981 53.4388911,36.9413832 54.1949109,37.2985794 C54.9964653,37.6776449 55.1648713,38.3351776 55.0658515,38.7834953 C54.9458713,39.3273084 54.4543861,39.6925234 53.8436436,39.6925234 C53.5935644,39.6925234 53.3283069,39.6349346 53.055099,39.521215 C52.6655248,39.3754206 52.3937624,39.3090841 52.1747624,39.3090841 C50.6056238,39.3090841 49.0003465,41.0637196 47.4044653,44.5234206 L40.1666238,60.1328972 C37.5422376,65.7977383 34.1668911,68.5510654 29.8483267,68.5510654 C27.3265743,68.5510654 25.191505,67.1667477 24.1087921,64.8391402 C21.290703,67.3314953 18.6027129,68.5955327 16.1192673,68.5955327 L16.1192673,68.5955327 Z M10.153505,36.321028 C12.1859406,36.321028 13.9220396,36.9362804 15.3126535,38.1500187 C16.7343465,39.3520935 17.4556733,40.9339626 17.4556733,42.8497009 C17.4556733,44.3696075 17.1275347,45.8202617 16.4799307,47.163028 L11.3923366,58.2426729 C10.6616139,59.8376636 10.3052871,61.2759252 10.3052871,62.6376449 C10.3052871,66.2307477 12.4786634,68.3761121 16.1192673,68.3761121 C18.5810297,68.3761121 21.2574554,67.0982243 24.074099,64.5781682 L24.1846832,64.479028 L24.245396,64.6160748 C25.2717327,66.9429533 27.3663267,68.3316449 29.8483267,68.3316449 C34.0743762,68.3316449 37.385396,65.6198692 39.9707525,60.0403178 L47.2078713,44.4308411 C48.8427822,40.8873084 50.5138317,39.0911215 52.1747624,39.0911215 C52.420505,39.0911215 52.7161188,39.1603738 53.1338812,39.3171028 C53.3846832,39.4213458 53.6224752,39.4738318 53.8436436,39.4731028 C54.3589802,39.4731028 54.7550594,39.1837009 54.8540792,38.7361121 C54.9357525,38.3665234 54.7883069,37.8205234 54.1031188,37.4968598 C53.3767327,37.153514 52.7276832,36.9792897 52.1747624,36.9792897 C51.1527624,36.9792897 50.1134158,37.414486 49.0863564,38.273215 C48.1026634,39.0947664 47.2982178,39.9593271 46.6932574,40.845028 C46.145396,41.7168785 45.6755941,42.5850841 45.2997525,43.4226729 L38.0619109,59.1655514 C37.1577228,61.1133645 35.9991188,62.7812523 34.6171782,64.1232897 C33.2294554,65.5141682 31.6682673,66.2205421 29.9805941,66.2205421 C27.9062376,66.2205421 26.4288911,64.9871215 25.9265644,62.8381121 L25.9128317,62.7790654 L25.9554752,62.7360561 C28.4165149,60.2262056 30.5942277,57.1579626 32.427901,53.6166168 C34.2095347,50.1751402 35.0905941,47.1754206 35.0472277,44.6983738 C35.0472277,42.7367103 33.9984851,41.4201869 32.4365743,41.4201869 C31.4427624,41.4201869 30.247297,42.3525421 28.882703,44.1910093 C27.5455743,46.0061495 26.3110792,48.5116262 25.2131881,51.636729 C24.1405941,54.6918505 23.5963465,57.8009159 23.5963465,60.8786355 C23.5963465,61.4873271 23.5963465,61.9261682 23.6389901,62.2257757 L23.6469406,62.2819065 L23.6071881,62.3205421 C20.9076337,64.9375514 18.3880495,66.2650093 16.1192673,66.2650093 C13.660396,66.2650093 12.4136139,65.0592897 12.4136139,62.6813832 C12.4136139,61.5718879 12.6824851,60.4026168 13.213,59.2071028 L18.3454059,47.9933271 C19.224297,46.098729 19.6514554,44.3732523 19.6514554,42.718486 C19.6514554,40.2458131 18.6757129,38.1879252 16.7524158,36.6024112 C14.8414059,34.9913832 12.6969406,34.2091963 10.1968713,34.2091963 C7.6989703,34.2091963 5.5559505,35.0343925 3.64566337,36.7321682 C1.7780198,38.3862056 0.831188119,40.4003551 0.831188119,42.718486 C0.831188119,44.7588785 1.50914851,46.4304112 2.90482178,47.8285794 C4.29977228,49.2274766 5.92456436,49.9076075 7.87243564,49.9076075 C10.4115347,49.9076075 12.4743267,48.6537757 13.254198,46.6359813 C13.4580198,46.1315327 13.4370594,45.656243 13.1963762,45.2954019 C13.0055644,45.0081869 12.6940495,44.8376075 12.3637426,44.8376075 C11.8368416,44.8376075 11.3771584,45.2589533 11.1328614,45.9645981 C10.6731782,47.2096822 9.57673267,47.840243 7.87243564,47.840243 C5.06012871,47.840243 2.93879208,45.656972 2.93879208,42.7614953 C2.93879208,40.9157383 3.69047525,39.363028 5.17215842,38.1485607 C6.65022772,36.9355514 8.32633663,36.321028 10.153505,36.321028 L10.153505,36.321028 Z M25.9475248,59.4498505 L25.9475248,59.4498505 C25.8969307,59.4498505 25.8492277,59.4279813 25.8138119,59.3893458 C25.7509307,59.3193645 25.6996139,59.1845047 25.7487624,58.6691215 C25.9554752,56.5572897 26.4881584,54.2763364 27.3771683,51.6965047 C28.184505,49.3535888 29.1132673,47.3234019 30.0637129,45.8246355 C30.9881386,44.3258692 31.8084851,43.5320187 32.4365743,43.5320187 C32.8572277,43.5320187 33.0711683,43.8498505 33.0711683,44.4774953 C33.0711683,46.3925047 32.4329604,48.7310467 31.1746139,51.426785 C29.8627822,54.2384299 28.3232772,56.7198505 26.467198,59.0124673 C26.2308515,59.3025981 26.0855743,59.4498505 25.9475248,59.4498505 L25.9475248,59.4498505 Z M32.4365743,43.7514393 C32.1228911,43.7514393 31.421802,44.0350093 30.247297,45.941271 C29.3055248,47.4269159 28.3839901,49.4410654 27.5824356,51.7679439 C26.6992079,54.3317383 26.1694158,56.5966542 25.9648713,58.6909907 C25.9301782,59.0540187 25.9511386,59.1815888 25.9655941,59.2238692 C26.0082376,59.2005421 26.102198,59.1159813 26.2995149,58.8739626 C28.1440297,56.5959252 29.6741386,54.1290841 30.9780198,51.3342056 C32.2226337,48.6668972 32.8543366,46.3604299 32.8543366,44.4774953 C32.8543366,43.8338131 32.631,43.7514393 32.4365743,43.7514393 L32.4365743,43.7514393 Z" id="Fill-2" sketch:type="MSShapeGroup"></path>
                <path d="M41.9121188,62.7251215 C41.9121188,61.9779252 42.1318416,61.1425234 42.5264752,60.2626542 L45.8158119,53.3155514 C47.351703,50.1051589 49.2374158,48.5225607 51.474396,48.5225607 C53.8870099,48.5225607 55.3347228,49.7100561 55.3347228,51.8641682 C55.3347228,52.6558318 55.115,53.4912336 54.6762772,54.3703738 L51.4310297,61.2744673 C49.8951386,64.4841308 48.0094257,66.0674579 45.7724455,66.0674579 C43.3598317,66.0674579 41.9121188,64.8799626 41.9121188,62.7251215 L41.9121188,62.7251215 Z M45.7724455,63.7806729 C47.0445248,63.7806729 48.2725149,62.5931776 49.4130495,60.1751776 L52.5715644,53.3155514 C53.3167426,51.6440187 52.9221089,50.8086168 51.474396,50.8086168 C50.5535842,50.8086168 49.7202277,51.2926542 49.0184158,52.3474766 C48.3599703,53.403028 48.3599703,53.4474953 47.8337921,54.5023178 L44.6752772,61.2744673 C44.4129109,61.802243 44.2806436,62.2855514 44.2806436,62.7251215 C44.2806436,63.4293084 44.7634554,63.7806729 45.7724455,63.7806729 L45.7724455,63.7806729 Z" id="Fill-3" sketch:type="MSShapeGroup"></path>
                <path d="M45.7724455,66.1768037 C43.2499703,66.1768037 41.803703,64.9185981 41.803703,62.7251215 C41.803703,61.983028 42.0133069,61.1403364 42.4274554,60.2181869 L45.7182376,53.2681682 C47.2591881,50.0461121 49.1962178,48.412486 51.474396,48.412486 C53.9968713,48.412486 55.4431386,49.6714206 55.4431386,51.8641682 C55.4431386,52.6689533 55.2176337,53.5291402 54.7731287,54.419215 L51.5293267,61.3211215 C49.9876535,64.5431776 48.0506238,66.1768037 45.7724455,66.1768037 L45.7724455,66.1768037 Z M51.474396,48.6319065 C49.2865644,48.6319065 47.4153069,50.2239813 45.9133861,53.3629346 L42.6240495,60.3100374 C42.2236337,61.2015701 42.0205347,62.0143738 42.0205347,62.7251215 C42.0205347,64.7793645 43.3880198,65.9573832 45.7724455,65.9573832 C47.9602772,65.9573832 49.8315347,64.3660374 51.3334554,61.2263551 L54.578703,54.3237196 C55.0087525,53.4613458 55.2263069,52.6346916 55.2263069,51.8641682 C55.2263069,49.8099252 53.8588218,48.6319065 51.474396,48.6319065 L51.474396,48.6319065 Z M45.7724455,63.8900187 C44.7106931,63.8900187 44.1722277,63.4978318 44.1722277,62.7251215 C44.1722277,62.270972 44.3088317,61.7665234 44.5791485,61.2248972 L47.9270297,54.0714953 C48.2732376,53.3716822 48.3556337,53.2047477 48.9266238,52.2891589 C49.6291584,51.2336075 50.4856436,50.699271 51.474396,50.699271 C52.1646436,50.699271 52.6351683,50.8873458 52.8722376,51.2576636 C53.1606238,51.7067103 53.0926832,52.4138131 52.6698614,53.3600187 L49.5113465,60.2211028 C48.3628614,62.6558692 47.1052376,63.8900187 45.7724455,63.8900187 L45.7724455,63.8900187 Z M51.474396,50.9186916 C50.5629802,50.9186916 49.7664851,51.4194953 49.1080396,52.4087103 C48.545,53.3126355 48.472,53.4598879 48.1207327,54.1699065 L47.9306436,54.5518879 L44.7735743,61.3203925 C44.5184356,61.8335888 44.3890594,62.3052336 44.3890594,62.7251215 C44.3890594,63.1311589 44.5321683,63.6713271 45.7724455,63.6713271 C47.0141683,63.6713271 48.2060198,62.4794579 49.3154752,60.1277944 L52.4725446,53.2688972 C52.8621188,52.3963178 52.9358416,51.7591963 52.690099,51.376486 C52.4956733,51.0717757 52.0865842,50.9186916 51.474396,50.9186916 L51.474396,50.9186916 Z" id="Fill-4" sketch:type="MSShapeGroup"></path>
                <path d="M56.5193465,61.1862617 C56.0806238,62.2418131 55.6859901,63.7806729 57.352703,63.7806729 C58.2742376,63.7806729 59.063505,63.3411028 59.7653168,62.3300187 C60.4671287,61.3182056 60.4671287,61.1862617 60.9492178,60.3071215 C61.3004851,59.6474019 61.783297,59.4717196 62.4410198,59.7356075 C63.0987426,59.955028 63.3184653,60.4383364 63.0553762,61.1425234 C62.5725644,62.3300187 61.783297,63.4293084 60.7743069,64.4841308 C59.7653168,65.5396822 58.6247822,66.0674579 57.352703,66.0674579 C54.9400891,66.0674579 53.712099,64.9681682 53.712099,62.7695888 C53.712099,62.0216636 53.931099,61.1425234 54.3698218,60.2189159 L63.8446436,39.6400374 C64.5898218,38.0574393 66.9149802,38.6726916 65.9941683,40.5636449 L56.5193465,61.1862617" id="Fill-5" sketch:type="MSShapeGroup"></path>
                <path d="M57.352703,66.1768037 C54.8649208,66.1768037 53.6036832,65.0301308 53.6036832,62.7688598 C53.6036832,61.9903178 53.8349703,61.0929533 54.2722475,60.1722617 L63.7463465,39.5941121 C64.0824356,38.8804486 64.6967921,38.6267664 65.1600891,38.6267664 C65.5807426,38.6267664 65.9515248,38.8199439 66.1517327,39.1443364 C66.3873564,39.5263178 66.366396,40.0468037 66.0910198,40.611757 L56.6176436,61.2329159 C56.2121683,62.2068224 56.137,62.9000748 56.3928614,63.2886168 C56.5605446,63.543028 56.8836238,63.6713271 57.352703,63.6713271 C58.2735149,63.6713271 59.0114653,63.2251963 59.6764158,62.2673271 C60.1787426,61.5434579 60.3211287,61.2686355 60.5365149,60.8531215 C60.6225248,60.6876449 60.720099,60.4995701 60.8545347,60.2539065 C61.2282079,59.5511776 61.7587228,59.3456075 62.4807723,59.6335514 C62.8240891,59.748 63.0618812,59.9368037 63.1825842,60.191215 C63.3097921,60.4609346 63.3011188,60.7940748 63.1565644,61.1811589 C62.6954356,62.3161682 61.9415842,63.4205607 60.8523663,64.5606729 C59.8260297,65.6329907 58.6486337,66.1768037 57.352703,66.1768037 L57.352703,66.1768037 Z M65.1600891,38.8454579 C64.7632871,38.8454579 64.2349406,39.0663364 63.9422178,39.6866916 L54.4681188,60.2655701 C54.0438515,61.1578318 53.8205149,62.0231215 53.8205149,62.7688598 C53.8205149,64.9149533 54.9762277,65.9573832 57.352703,65.9573832 C58.5879208,65.9573832 59.7125545,65.4368972 60.6962475,64.4075888 C61.7659505,63.2886168 62.5053465,62.2068224 62.9549109,61.100972 C63.0770594,60.7743925 63.087901,60.4988411 62.9874356,60.2852523 C62.8927525,60.086243 62.697604,59.9360748 62.4070495,59.8391215 C61.7775149,59.5854393 61.3669802,59.7531028 61.0453465,60.3588785 C60.9101881,60.6038131 60.8140594,60.7904299 60.729495,60.9537196 C60.5090495,61.3772523 60.364495,61.6571776 59.8542178,62.3927103 C59.1545743,63.4008785 58.336396,63.8900187 57.352703,63.8900187 C56.8062871,63.8900187 56.422495,63.7289159 56.2128911,63.4103551 C55.9129406,62.9562056 55.9830495,62.1937009 56.419604,61.1447103 L65.8951485,40.5169907 C66.1372772,40.0205607 66.1625743,39.5751589 65.9674257,39.259514 C65.8076931,39 65.5055743,38.8454579 65.1600891,38.8454579 L65.1600891,38.8454579 Z" id="Fill-6" sketch:type="MSShapeGroup"></path>
                <path d="M68.5816931,51.0287664 C68.0114257,51.0287664 67.572703,51.2926542 67.353703,51.8204299 L59.8527723,68.2222991 C57.1329802,74.2457944 53.6239208,77.2797757 49.3689604,77.2797757 C45.5527228,77.2797757 43.6229208,75.1694019 43.6229208,72.486785 C43.6229208,71.343757 44.0616436,70.2444673 44.9390891,69.2333832 C45.8158119,68.2222991 46.9563465,67.6937944 48.3599703,67.6500561 C50.3338614,67.6500561 50.1148614,69.9368411 48.3599703,69.9368411 C46.9129802,70.068785 45.9914455,71.3000187 45.9914455,72.486785 C45.9914455,73.8944299 47.0445248,74.9937196 49.3689604,74.9937196 C52.3959307,74.9937196 55.5537228,72.3111028 57.5276139,67.8702056 L64.8529109,51.8204299 C65.0726337,51.2926542 64.897,51.0287664 64.3267327,51.0287664 L64.2392772,51.0287664 C63.5808317,50.985028 63.2743762,50.6766729 63.2743762,50.1051589 C63.2302871,49.5336449 63.5374653,49.0940748 64.151099,48.8301869 C64.3708218,48.7864486 64.5464554,48.7419813 64.7654554,48.7419813 L65.3798119,48.7419813 C65.9934455,48.7419813 66.4321683,48.4788224 66.6511683,47.9510467 L68.1870594,44.6531776 C70.8186733,39.024785 74.4592772,35.3310841 78.8016931,35.3310841 C82.6179307,35.3310841 84.5484554,37.4414579 84.5484554,40.1240748 C84.5484554,41.2671028 84.1097327,42.3663925 83.2322871,43.3774766 C82.3548416,44.3885607 81.2143069,44.9170654 79.8106832,44.9608037 C78.1439703,44.9608037 78.319604,42.6740187 79.8106832,42.6740187 C81.2576733,42.5420748 82.1792079,41.3108411 82.1792079,40.1240748 C82.1792079,38.7164299 81.1268515,37.6171402 78.8016931,37.6171402 C77.354703,37.6171402 75.9069901,38.2768598 74.4151881,39.5962991 C72.9241089,40.9150093 71.6520297,42.6740187 70.6430396,44.8288598 L69.1953267,47.9510467 C68.9763267,48.4788224 69.1078713,48.7419813 69.6781386,48.7419813 L70.730495,48.7419813 C71.3889406,48.7419813 71.7394851,49.0503364 71.7835743,49.6218505 C71.8276634,50.2371028 71.5645743,50.6766729 70.9502178,50.8968224 C70.7745842,50.985028 70.5555842,51.0287664 70.3358614,51.0287664 L68.5816931,51.0287664" id="Fill-7" sketch:type="MSShapeGroup"></path>
                <path d="M49.3689604,77.3898505 C45.812198,77.3898505 43.514505,75.4646355 43.514505,72.487514 C43.514505,71.3073084 43.9662376,70.1883364 44.8574158,69.161215 C45.7514851,68.1304486 46.9288812,67.5859065 48.3563564,67.5399813 C48.8297723,67.5399813 49.2207921,67.6668224 49.4903861,67.9059252 C49.7339604,68.1217009 49.8676733,68.4191215 49.8676733,68.743514 C49.8676733,69.3748037 49.3393267,70.0469159 48.3599703,70.0469159 C46.9491188,70.1759439 46.0998614,71.3889533 46.0998614,72.487514 C46.0998614,73.9884673 47.3220693,74.8843738 49.3689604,74.8843738 C52.4053267,74.8843738 55.4937327,72.1798879 57.4293168,67.8250093 L64.7546139,51.7745047 C64.8182178,51.6221495 64.8774851,51.4114766 64.7965347,51.2882804 C64.7148614,51.1636262 64.4958614,51.1381121 64.3267327,51.1381121 L64.2392772,51.1381121 C63.5244554,51.090729 63.1659604,50.7430093 63.1659604,50.1051589 C63.1182574,49.4935514 63.4442277,49.0146168 64.1091782,48.7303178 L64.2226535,48.7048037 C64.4069604,48.6661682 64.5674158,48.6326355 64.7654554,48.6326355 L65.3798119,48.6326355 C65.9573069,48.6326355 66.3519406,48.3891589 66.5514257,47.9087664 L68.0887624,44.6065234 C70.9596139,38.4671215 74.6645446,35.2217383 78.8016931,35.2217383 C82.3584554,35.2217383 84.6568713,37.1462243 84.6568713,40.1240748 C84.6568713,41.3042804 84.2044158,42.4232523 83.3132376,43.4496449 C82.4198911,44.4804112 81.242495,45.0249533 79.814297,45.0701495 C79.4059307,45.0701495 79.0691188,44.9403925 78.8356634,44.6969159 C78.630396,44.4811402 78.5169208,44.1851776 78.5169208,43.8651589 C78.5169208,43.2345981 78.9708218,42.5646729 79.8106832,42.5646729 C81.2215347,42.4356449 82.0707921,41.2226355 82.0707921,40.1240748 C82.0707921,38.6231215 80.8485842,37.726486 78.8016931,37.726486 C77.3821683,37.726486 75.9705941,38.3650654 74.4867426,39.6779439 C73,40.9944673 71.7394851,42.743271 70.7413366,44.875514 L69.2936238,47.996972 C69.1960495,48.2331589 69.1772574,48.4022804 69.2394158,48.4977757 C69.2986832,48.5874393 69.4461287,48.6326355 69.6781386,48.6326355 L70.730495,48.6326355 C71.6281782,48.6326355 71.857297,49.165514 71.8912673,49.6131028 C71.9404158,50.2910467 71.6274554,50.7707103 70.9863564,51.0003364 C70.8136139,51.0870841 70.5779901,51.1381121 70.3365842,51.1381121 L68.5816931,51.1381121 C68.0410594,51.1381121 67.6507624,51.3888785 67.4534455,51.8619813 L59.9510693,68.2674953 C57.2182673,74.3201495 53.6578911,77.3898505 49.3689604,77.3898505 L49.3689604,77.3898505 Z M48.3599703,67.7594019 C46.9975446,67.8024112 45.8729109,68.3221682 45.0207624,69.3048224 C44.165,70.2918505 43.7313366,71.3627103 43.7313366,72.487514 C43.7313366,75.3757009 45.891703,77.1704299 49.3689604,77.1704299 C53.5653762,77.1704299 57.0592574,74.1451963 59.7537525,68.1763738 L67.2546832,51.7745047 C67.483802,51.2248598 67.9557723,50.9194206 68.5816931,50.9194206 L70.3365842,50.9194206 C70.5454653,50.9194206 70.746396,50.8764112 70.9025149,50.7984112 C71.4684455,50.595028 71.7170792,50.2145047 71.6758812,49.6291402 C71.6354059,49.1057383 71.3260594,48.8520561 70.730495,48.8520561 L69.6781386,48.8520561 C69.3651782,48.8520561 69.1620792,48.775514 69.0594455,48.618785 C68.9524752,48.4576822 68.9640396,48.2244112 69.0955842,47.9087664 L70.5447426,44.7829346 C71.555901,42.6229907 72.8344851,40.8501308 74.3436337,39.5139252 C75.8694059,38.1638692 77.3272376,37.5085234 78.8016931,37.5085234 C80.9844653,37.5085234 82.2883465,38.4860748 82.2883465,40.1240748 C82.2883465,41.3210467 81.3646436,42.6426729 79.820802,42.7833645 C79.1110396,42.7833645 78.7344752,43.3402991 78.7344752,43.8651589 C78.7344752,44.1283178 78.8255446,44.3703364 78.992505,44.5445607 C79.1833168,44.745757 79.4659208,44.850729 79.8106832,44.850729 C81.1738317,44.8084486 82.2977426,44.2886916 83.1498911,43.3060374 C84.0063762,42.3204673 84.4393168,41.2496075 84.4393168,40.1240748 C84.4393168,37.2351589 82.2796733,35.4404299 78.8016931,35.4404299 C75.9792673,35.4404299 71.8630792,37.0463551 68.2853564,44.6998318 L66.7494653,47.996972 C66.5181782,48.5539065 66.0440396,48.8520561 65.3798119,48.8520561 L64.7654554,48.8520561 C64.589099,48.8520561 64.4394851,48.8826729 64.2660198,48.9183925 L64.1727822,48.9380748 C63.6227525,49.1757196 63.3423168,49.5795701 63.3820693,50.0971402 C63.3827921,50.6285607 63.649495,50.8793271 64.246505,50.9201495 L64.3267327,50.9194206 C64.6541485,50.9194206 64.8673663,51.0003364 64.976505,51.1665421 C65.0849208,51.3305607 65.0769703,51.5645607 64.9533762,51.8619813 L57.6259109,67.9154019 C55.6563564,72.3482804 52.4920594,75.1030654 49.3689604,75.1030654 C47.1861881,75.1030654 45.8830297,74.125514 45.8830297,72.487514 C45.8830297,71.2905421 46.8060099,69.9681869 48.3505743,69.8282243 C49.1983861,69.8274953 49.6508416,69.2683738 49.6508416,68.743514 C49.6508416,68.483271 49.5431485,68.2441682 49.3472772,68.0706729 C49.1181584,67.8672897 48.7762871,67.7594019 48.3599703,67.7594019 L48.3599703,67.7594019 Z" id="Fill-8" sketch:type="MSShapeGroup"></path>
                <path d="M75.2044554,64.6160748 C74.8098218,65.4514766 74.2395545,65.8035701 73.4943762,65.7153645 C72.9241089,65.6716262 72.6169307,65.364 72.6169307,64.8362243 C72.6169307,64.6605421 72.6610198,64.4403925 72.7918416,64.220243 L77.8367921,53.403028 C78.0998812,52.7440374 78.2314257,52.26 78.2314257,51.8641682 C78.2314257,51.1607103 77.792703,50.8086168 76.9593465,50.8086168 C75.3800891,50.8086168 73.8890099,52.4356822 73.3187426,53.7988598 L69.9845941,61.1862617 C69.3268713,62.7251215 67.3096139,66.0674579 64.1951881,66.0674579 C62.7908416,66.0674579 62.8790198,63.7806729 64.1951881,63.7806729 C65.5106337,63.7806729 66.6952574,62.5931776 67.791703,60.2626542 L72.7484752,49.4899065 C72.9674752,48.9621308 73.3628317,48.698243 73.9323762,48.698243 C74.5033663,48.698243 74.8098218,49.0058692 74.898,49.5773832 C75.2926337,49.0503364 76.3449901,48.5225607 77.2224356,48.5225607 C78.757604,48.5225607 79.7665941,49.0940748 80.2927723,50.2371028 C81.4333069,49.0940748 82.6179307,48.5225607 83.8900099,48.5225607 C86.1269901,48.5225607 87.4431584,49.7537944 87.4431584,51.8641682 C87.4431584,52.6558318 87.2234356,53.4912336 86.7847129,54.3703738 L83.6269208,61.1862617 C83.3197426,61.802243 83.188198,62.3300187 83.188198,62.7695888 C83.188198,63.4293084 83.6269208,63.7806729 84.4602772,63.7806729 C85.7323564,63.7806729 86.9162574,62.6376449 88.0567921,60.3071215 C88.4080594,59.6474019 88.8901485,59.4717196 89.5485941,59.7356075 C90.2063168,59.955028 90.4253168,60.4383364 90.1622277,61.1425234 C89.6801386,62.3300187 88.8901485,63.4293084 87.8811584,64.4841308 C86.8728911,65.5396822 85.7323564,66.0674579 84.4602772,66.0674579 C82.0476634,66.0674579 80.8189505,64.9681682 80.8189505,62.7695888 C80.8189505,62.0216636 81.0386733,61.1425234 81.477396,60.2189159 L84.6792772,53.3155514 C84.9423663,52.6558318 85.0739109,52.1717944 85.0739109,51.8641682 C85.0739109,51.1607103 84.6792772,50.8086168 83.8900099,50.8086168 C82.3107525,50.8086168 80.8630396,52.4356822 80.0296832,54.1509533 L75.2044554,64.6160748" id="Fill-9" sketch:type="MSShapeGroup"></path>
                <path d="M84.4602772,66.1768037 C81.9717723,66.1768037 80.7105347,65.0301308 80.7105347,62.7688598 C80.7105347,61.9910467 80.9418218,61.0936822 81.379099,60.1722617 L84.5809802,53.2688972 C84.835396,52.6317757 84.965495,52.1579439 84.965495,51.8641682 C84.965495,51.219028 84.6236238,50.9186916 83.8892871,50.9186916 C82.2905149,50.9186916 80.8977327,52.6128224 80.1265347,54.1997944 L75.3027525,64.662729 C74.8943861,65.5280187 74.2836436,65.9129159 73.4813663,65.8247103 C72.8554455,65.7758692 72.5085149,65.4245047 72.5085149,64.8354953 C72.5085149,64.6751215 72.5417624,64.427271 72.6993267,64.1633832 L77.738495,53.3571028 C78.0037525,52.6908224 78.1230099,52.2286542 78.1230099,51.8641682 C78.1230099,51.2270467 77.7421089,50.9186916 76.9600693,50.9186916 C75.5087426,50.9186916 74.0191089,52.4050654 73.4184851,53.8418692 L70.0836139,61.2321869 C69.8682277,61.7366355 67.8632574,66.1768037 64.1951881,66.1768037 C63.8417525,66.1768037 63.5468614,66.0434019 63.3423168,65.7897196 C63.1645149,65.5695701 63.0662178,65.2721495 63.0662178,64.9521308 C63.0662178,64.3157383 63.4543465,63.6713271 64.1951881,63.6713271 C65.455703,63.6713271 66.5998515,62.5414206 67.6934059,60.216 L72.6501782,49.4432523 C72.885802,48.8775701 73.3180198,48.5881682 73.9323762,48.5881682 C74.4715644,48.5881682 74.8163267,48.8425794 74.9579901,49.3441121 C75.4314059,48.8673645 76.3724554,48.412486 77.2224356,48.412486 C78.7200198,48.412486 79.7622574,48.9643178 80.3238515,50.0534019 C81.4622178,48.9497383 82.6302178,48.412486 83.8892871,48.412486 C86.1819208,48.412486 87.5515743,49.7034953 87.5515743,51.8641682 C87.5515743,52.6689533 87.3260693,53.5291402 86.8815644,54.419215 L83.724495,61.2329159 C83.4397228,61.8044299 83.2966139,62.3198131 83.2966139,62.7688598 C83.2966139,63.3680748 83.6876337,63.6713271 84.4602772,63.6713271 C85.6911584,63.6713271 86.8360297,62.555271 87.9592178,60.2582804 C88.3372277,59.5497196 88.8655743,59.3448785 89.5883465,59.6335514 C89.9316634,59.748 90.1694554,59.9368037 90.2901584,60.191215 C90.4173663,60.4609346 90.4086931,60.7940748 90.2641386,61.1811589 C89.8015644,62.3168972 89.0484356,63.4212897 87.9592178,64.5606729 C86.933604,65.6329907 85.7562079,66.1768037 84.4602772,66.1768037 L84.4602772,66.1768037 Z M83.8892871,50.699271 C84.9582673,50.699271 85.1823267,51.3327477 85.1823267,51.8641682 C85.1823267,52.1907477 85.0507822,52.6784299 84.7797426,53.3556449 L81.5749703,60.2655701 C81.1514257,61.1585607 80.9280891,62.0238505 80.9280891,62.7688598 C80.9280891,64.9149533 82.0830792,65.9573832 84.4602772,65.9573832 C85.695495,65.9573832 86.8201287,65.4368972 87.8023762,64.4075888 C88.872802,63.2893458 89.6114752,62.2082804 90.0617624,61.100972 C90.1839109,60.7743925 90.1954752,60.4988411 90.0942871,60.2859813 C90.0003267,60.086972 89.8051782,59.9360748 89.5146238,59.8391215 C88.8850891,59.5861682 88.4745545,59.7538318 88.152198,60.3588785 C86.9892574,62.7338692 85.7822277,63.8900187 84.4602772,63.8900187 C83.5698218,63.8900187 83.0790594,63.492 83.0790594,62.7688598 C83.0790594,62.2855514 83.2308416,61.7366355 83.5293465,61.1374206 L86.6864158,54.3244486 C87.1164653,53.4613458 87.3340198,52.6346916 87.3340198,51.8641682 C87.3340198,49.8099252 86.0792871,48.6319065 83.8892871,48.6319065 C82.6511782,48.6319065 81.4990792,49.1822804 80.3686634,50.3151028 L80.2595248,50.4244486 L80.1944752,50.283028 C79.6827525,49.1713458 78.7106238,48.6319065 77.2224356,48.6319065 C76.3500495,48.6319065 75.342505,49.164785 74.9847327,49.6444486 L74.8300594,49.8500187 L74.7910297,49.5948785 C74.7079109,49.0576262 74.434703,48.8075888 73.9323762,48.8075888 C73.4054752,48.8075888 73.0513168,49.0445047 72.8482178,49.5314579 L67.89,60.3093084 C66.7559703,62.7192897 65.547495,63.8900187 64.1951881,63.8900187 C63.5967327,63.8900187 63.2830495,64.4243551 63.2830495,64.9521308 C63.2830495,65.2225794 63.364,65.4704299 63.51,65.651215 C63.6726238,65.8516822 63.9089703,65.9573832 64.1951881,65.9573832 C67.7244851,65.9573832 69.6745248,61.6360374 69.8855743,61.1432523 L73.2197228,53.7536636 C73.8470891,52.2541682 75.418396,50.699271 76.9600693,50.699271 C78.100604,50.699271 78.3405644,51.3327477 78.3405644,51.8641682 C78.3405644,52.2585421 78.2155248,52.7454953 77.9372574,53.4445794 L72.8901386,64.2668972 C72.7528119,64.4972523 72.7253465,64.7028224 72.7253465,64.8354953 C72.7253465,65.3071402 72.9862673,65.5666542 73.5023267,65.6067477 C73.5760495,65.6154953 73.6447129,65.6198692 73.7104851,65.6198692 C74.3154455,65.6198692 74.7729604,65.2757944 75.1068812,64.5694206 L79.9313861,54.105028 C80.731495,52.4575514 82.191495,50.699271 83.8892871,50.699271 L83.8892871,50.699271 Z" id="Fill-10" sketch:type="MSShapeGroup"></path>
                <path d="M87.4431584,62.7251215 C87.4431584,61.9779252 87.6628812,61.1425234 88.0575149,60.2626542 L91.3468515,53.3155514 C92.8827426,50.1051589 94.7684554,48.5225607 97.0054356,48.5225607 C99.4180495,48.5225607 100.865762,49.7100561 100.865762,51.8641682 C100.865762,52.6558318 100.64604,53.4912336 100.207317,54.3703738 L96.9613465,61.2744673 C95.4261782,64.4841308 93.5404653,66.0674579 91.3034851,66.0674579 C88.8908713,66.0674579 87.4431584,64.8799626 87.4431584,62.7251215 L87.4431584,62.7251215 Z M91.3034851,63.7806729 C92.5755644,63.7806729 93.8035545,62.5931776 94.9440891,60.1751776 L98.1018812,53.3155514 C98.8477822,51.6440187 98.4531485,50.8086168 97.0054356,50.8086168 C96.0846238,50.8086168 95.2512673,51.2926542 94.5494554,52.3474766 C93.8910099,53.403028 93.8910099,53.4474953 93.3648317,54.5023178 L90.2063168,61.2744673 C89.9439505,61.802243 89.8116832,62.2855514 89.8116832,62.7251215 C89.8116832,63.4293084 90.294495,63.7806729 91.3034851,63.7806729 L91.3034851,63.7806729 Z" id="Fill-11" sketch:type="MSShapeGroup"></path>
                <path d="M91.3034851,66.1768037 C88.7817327,66.1768037 87.3347426,64.9185981 87.3347426,62.7251215 C87.3347426,61.9822991 87.5450693,61.1388785 87.958495,60.2181869 L91.2485545,53.2681682 C92.7909505,50.0461121 94.7265347,48.412486 97.0054356,48.412486 C99.5271881,48.412486 100.974178,49.6714206 100.974178,51.8641682 C100.974178,52.6689533 100.749396,53.5291402 100.304168,54.419215 L97.0596436,61.3211215 C95.5179703,64.5431776 93.5823861,66.1768037 91.3034851,66.1768037 L91.3034851,66.1768037 Z M97.0054356,48.6319065 C94.8168812,48.6319065 92.9470693,50.2239813 91.4444257,53.3629346 L88.1558119,60.3100374 C87.755396,61.2008411 87.552297,62.0136449 87.552297,62.7251215 C87.552297,64.7793645 88.9190594,65.9573832 91.3034851,65.9573832 C93.4920396,65.9573832 95.3625743,64.3660374 96.864495,61.2263551 L100.109743,54.3237196 C100.539792,53.4613458 100.756624,52.6346916 100.756624,51.8641682 C100.756624,49.8099252 99.3898614,48.6319065 97.0054356,48.6319065 L97.0054356,48.6319065 Z M91.3034851,63.8900187 C90.2410099,63.8900187 89.7025446,63.4978318 89.7025446,62.7251215 C89.7025446,62.270972 89.8398713,61.7665234 90.1101881,61.2248972 L93.4587921,54.0700374 C93.805,53.3709533 93.8866733,53.2040187 94.4576634,52.2891589 C95.160198,51.2336075 96.0174059,50.699271 97.0054356,50.699271 C97.6956832,50.699271 98.1654851,50.8873458 98.4032772,51.2576636 C98.6909406,51.7067103 98.623,52.4138131 98.200901,53.3600187 L95.0416634,60.2211028 C93.893901,62.6558692 92.6362772,63.8900187 91.3034851,63.8900187 L91.3034851,63.8900187 Z M97.0054356,50.9186916 C96.093297,50.9186916 95.2975248,51.4194953 94.639802,52.4087103 C94.0760396,53.3119065 94.0037624,53.4591589 93.652495,54.1677196 L93.4616832,54.5518879 L90.3046139,61.3203925 C90.0487525,61.8335888 89.920099,62.3052336 89.920099,62.7251215 C89.920099,63.1311589 90.0632079,63.6713271 91.3034851,63.6713271 C92.5459307,63.6713271 93.7370594,62.4794579 94.8457921,60.1277944 L98.0043069,53.2688972 C98.3931584,52.3963178 98.4661584,51.7591963 98.2211386,51.376486 C98.0259901,51.0717757 97.6176238,50.9186916 97.0054356,50.9186916 L97.0054356,50.9186916 Z" id="Fill-12" sketch:type="MSShapeGroup"></path>
                <path d="M108.761327,51.0287664 L107.489248,51.0287664 C106.91898,51.0287664 106.480257,51.2926542 106.261257,51.8204299 L102.050386,61.1862617 C101.480119,62.5494393 101.787297,63.7806729 103.234287,63.7806729 C104.155822,63.7806729 104.945089,63.3411028 105.646901,62.3300187 C106.348713,61.3182056 106.348713,61.1862617 106.830802,60.3071215 C107.182069,59.6474019 107.664158,59.4717196 108.322604,59.7356075 C108.980327,59.955028 109.20005,60.4383364 108.936238,61.1425234 C108.454149,62.2418131 107.708248,63.2966355 106.655891,64.3521869 C105.646901,65.364 104.506366,65.935514 103.234287,66.0674579 C100.778307,66.2868785 99.2424158,65.0119065 99.2424158,62.7695888 C99.2424158,62.1098692 99.4621386,61.2744673 99.9008614,60.3071215 L103.804554,51.8204299 C104.023554,51.2926542 103.936099,51.0287664 103.628921,51.0287664 C102.971198,51.0287664 102.620653,50.7211402 102.576564,50.1496262 C102.532475,49.5336449 102.839653,49.0940748 103.409921,48.8739252 C103.585554,48.7864486 103.804554,48.7419813 104.023554,48.7419813 L104.199188,48.7419813 C104.813545,48.7419813 105.208178,48.4788224 105.427901,47.9510467 L107.094614,44.433028 C107.839792,42.8504299 110.16495,43.4656822 109.243416,45.3566355 L108.015426,47.9510467 C107.796426,48.4788224 107.971337,48.7419813 108.541604,48.7419813 L109.15596,48.7419813 C109.770317,48.7419813 110.120861,49.0503364 110.16495,49.6218505 C110.20904,50.2808411 109.945228,50.7211402 109.331594,50.9405607 L108.761327,51.0287664" id="Fill-13" sketch:type="MSShapeGroup"></path>
                <path d="M102.700881,66.2015888 C101.618891,66.2015888 100.717594,65.8859439 100.093119,65.2881869 C99.4657525,64.687514 99.134,63.8163925 99.134,62.7688598 C99.134,62.0828972 99.359505,61.2394766 99.8018416,60.2611963 L103.706257,51.7737757 C103.86599,51.3896075 103.816119,51.2445421 103.787208,51.2000748 C103.777089,51.1854953 103.74601,51.1381121 103.628921,51.1381121 C102.73196,51.1381121 102.502119,50.6052336 102.468871,50.1583738 C102.421891,49.5059439 102.742802,49.0138879 103.371614,48.7718692 C103.546525,48.6836636 103.781426,48.6326355 104.024277,48.6326355 L104.199188,48.6326355 C104.76295,48.6326355 105.121446,48.4022804 105.327436,47.9087664 L106.996317,44.3863738 C107.331683,43.6734393 107.946762,43.419757 108.409337,43.419757 C108.830713,43.419757 109.201495,43.6129346 109.40098,43.9365981 C109.637327,44.3193084 109.615644,44.8405234 109.34099,45.4047477 L108.113723,47.9977009 C108.050842,48.1485981 107.990851,48.36 108.071802,48.4831963 C108.154198,48.6071215 108.372475,48.6326355 108.541604,48.6326355 L109.15596,48.6326355 C109.828139,48.6326355 110.224218,48.9803551 110.272644,49.6131028 C110.321069,50.3311402 110.016059,50.8115327 109.36701,51.0440748 L108.777228,51.1366542 L107.489248,51.1381121 C106.948614,51.1381121 106.558317,51.3888785 106.361,51.8619813 L102.148683,61.2314579 C101.821267,62.0136449 101.80103,62.7185607 102.093752,63.1632336 C102.31203,63.4956449 102.706663,63.6713271 103.234287,63.6713271 C104.155099,63.6713271 104.89305,63.2251963 105.558,62.2673271 C106.060327,61.5434579 106.203436,61.2686355 106.418099,60.8531215 C106.503386,60.6876449 106.60096,60.4995701 106.736842,60.2539065 C107.109792,59.5504486 107.64103,59.3456075 108.363079,59.6335514 C108.705673,59.748 108.943465,59.9368037 109.064168,60.191215 C109.191376,60.4609346 109.182703,60.7940748 109.038149,61.1811589 C108.54305,62.3096075 107.789198,63.3702617 106.731782,64.4301869 C105.709782,65.4551215 104.537446,66.0426729 103.245851,66.1760748 C103.059376,66.1928411 102.876515,66.2015888 102.700881,66.2015888 L102.700881,66.2015888 Z M104.024277,48.8520561 C103.814673,48.8520561 103.61302,48.8943364 103.458347,48.9723364 C102.909762,49.1844673 102.645228,49.5868598 102.684257,50.1416075 C102.724733,50.6650093 103.034079,50.9194206 103.628921,50.9194206 C103.821901,50.9194206 103.919475,51.0068972 103.967901,51.0790654 C104.074149,51.2416262 104.053188,51.504785 103.90502,51.8619813 L99.9984356,60.3530467 C99.5756139,61.2875888 99.3515545,62.1237196 99.3515545,62.7688598 C99.3515545,63.7551589 99.6594554,64.5716075 100.242733,65.13 C100.922139,65.780243 101.970158,66.0689159 103.224168,65.9581121 C104.463723,65.8305421 105.593416,65.2634019 106.579277,64.2749159 C107.617178,63.2339439 108.355851,62.1951589 108.837941,61.098785 C108.958644,60.7743925 108.970208,60.4988411 108.86902,60.2859813 C108.774337,60.086972 108.579911,59.9360748 108.288634,59.8391215 C107.659822,59.5876262 107.249287,59.7531028 106.926931,60.3588785 C106.792495,60.6038131 106.695644,60.7904299 106.610356,60.9537196 C106.390634,61.3772523 106.246079,61.6571776 105.735802,62.3927103 C105.036158,63.4008785 104.21798,63.8900187 103.234287,63.8900187 C102.63005,63.8900187 102.173257,63.6800748 101.913059,63.284972 C101.579139,62.7776075 101.592871,61.9976075 101.949921,61.1439813 L106.162238,51.7752336 C106.391356,51.2248598 106.863327,50.9194206 107.489248,50.9194206 L108.761327,50.9194206 L109.31497,50.8326729 C109.855604,50.6373084 110.097733,50.2531402 110.057257,49.6284112 C110.017505,49.113028 109.714663,48.8520561 109.15596,48.8520561 L108.541604,48.8520561 C108.214188,48.8520561 108.001693,48.7704112 107.891109,48.6042056 C107.78197,48.438 107.789921,48.2105607 107.915683,47.9087664 L109.145842,45.3092523 C109.387248,44.8142804 109.412545,44.3681495 109.217396,44.0532336 C109.057663,43.7929907 108.755545,43.6384486 108.409337,43.6384486 C108.012535,43.6384486 107.484911,43.8593271 107.192911,44.4804112 L105.525475,47.9977009 C105.28696,48.5706729 104.852574,48.8520561 104.199188,48.8520561 L104.024277,48.8520561 L104.024277,48.8520561 Z" id="Fill-14" sketch:type="MSShapeGroup"></path>
                <path d="M116.305624,39.6400374 C117.051525,38.0574393 119.376683,38.6726916 118.455149,40.5636449 L114.112733,49.4017009 C114.858634,48.7864486 115.560446,48.4788224 116.305624,48.4788224 C118.367693,48.4788224 119.595683,49.7975327 119.595683,51.8641682 C119.595683,52.6558318 119.376683,53.4912336 118.93796,54.3703738 L115.736079,61.23 C115.472267,61.802243 115.340723,62.3300187 115.340723,62.7695888 C115.340723,63.4293084 115.779446,63.7806729 116.612802,63.7806729 C117.534337,63.7806729 118.323604,63.3411028 119.025416,62.3300187 C119.727228,61.3182056 119.727228,61.1862617 120.21004,60.3071215 C120.560584,59.6474019 121.043396,59.4717196 121.701119,59.7356075 C122.359564,59.955028 122.578564,60.4383364 122.315475,61.1425234 C121.832663,62.3300187 121.043396,63.4293084 120.034406,64.4841308 C119.025416,65.5396822 117.884881,66.0674579 116.612802,66.0674579 C114.200188,66.0674579 112.972198,64.9681682 112.972198,62.7695888 C112.972198,62.0216636 113.191921,61.1425234 113.630644,60.2189159 L116.832525,53.3155514 C117.095614,52.6558318 117.227158,52.1717944 117.227158,51.8641682 C117.227158,51.1607103 116.744347,50.8086168 115.736079,50.8086168 C114.288366,50.8086168 113.016287,52.3037383 112.358564,53.7113832 L108.980327,61.1862617 C108.322604,62.7251215 106.304624,66.0674579 103.190921,66.0674579 C101.655752,66.0674579 101.874752,63.7806729 103.190921,63.7806729 C104.550455,63.7806729 105.734356,62.6376449 106.831525,60.3071215 L116.305624,39.6400374" id="Fill-15" sketch:type="MSShapeGroup"></path>
                <path d="M116.612802,66.1768037 C114.124297,66.1768037 112.863059,65.0301308 112.863059,62.7688598 C112.863059,61.9910467 113.095069,61.0929533 113.533069,60.1722617 L116.734228,53.2688972 C116.988644,52.6303178 117.118743,52.156486 117.118743,51.8641682 C117.118743,51.4581308 116.975634,50.9186916 115.736079,50.9186916 C114.295594,50.9186916 113.06905,52.4473458 112.456861,53.7573084 L109.079347,61.2321869 C108.863238,61.7366355 106.85899,66.1768037 103.190921,66.1768037 C102.817248,66.1768037 102.508624,66.0485047 102.296851,65.806486 C102.112545,65.5958131 102.012079,65.3056822 102.012079,64.9893084 C102.012079,64.350729 102.424782,63.6713271 103.190921,63.6713271 C104.494079,63.6713271 105.653406,62.555271 106.733228,60.2597383 L116.207327,39.5941121 C116.543416,38.8804486 117.158495,38.6267664 117.621069,38.6267664 C118.042446,38.6267664 118.413228,38.8199439 118.612713,39.1443364 C118.849059,39.5263178 118.827376,40.0468037 118.552723,40.611757 L114.414851,49.0342991 C115.058119,48.5816075 115.667416,48.3694766 116.305624,48.3694766 C118.401663,48.3694766 119.704099,49.7085981 119.704099,51.8641682 C119.704099,52.6704112 119.479317,53.5305981 119.034089,54.419215 L115.834376,61.2766542 C115.582129,61.8233832 115.449139,62.3402243 115.449139,62.7688598 C115.449139,63.3680748 115.840158,63.6713271 116.612802,63.6713271 C117.532891,63.6713271 118.271564,63.2251963 118.936515,62.2673271 C119.440287,61.542 119.575446,61.281028 119.798782,60.8502056 C119.883347,60.6854579 119.980921,60.4981121 120.114634,60.2539065 C120.489752,59.5504486 121.018822,59.3456075 121.740871,59.6335514 C122.084188,59.748 122.32198,59.9368037 122.442683,60.191215 C122.570614,60.4609346 122.561218,60.7940748 122.416663,61.1811589 C121.955535,62.3147103 121.202406,63.4198318 120.113188,64.5606729 C119.086851,65.6329907 117.908733,66.1768037 116.612802,66.1768037 L116.612802,66.1768037 Z M115.736079,50.699271 C116.797832,50.699271 117.336297,51.0914579 117.336297,51.8641682 C117.336297,52.1892897 117.20403,52.676972 116.932267,53.3556449 L113.728941,60.2655701 C113.304673,61.1585607 113.080614,62.0231215 113.080614,62.7688598 C113.080614,64.9149533 114.236327,65.9573832 116.612802,65.9573832 C117.84802,65.9573832 118.972653,65.4368972 119.956347,64.4075888 C121.027495,63.2878879 121.766168,62.2060935 122.21501,61.100972 C122.337158,60.7743925 122.348,60.4988411 122.247535,60.2852523 C122.152851,60.086243 121.957703,59.9360748 121.667149,59.8391215 C121.037614,59.5861682 120.628525,59.7538318 120.304723,60.3588785 C120.171733,60.6023551 120.075604,60.788243 119.99104,60.9508037 C119.771317,61.3750654 119.62604,61.6557196 119.114317,62.3927103 C118.414673,63.4008785 117.596495,63.8900187 116.612802,63.8900187 C115.722347,63.8900187 115.232307,63.492 115.232307,62.7688598 C115.232307,62.3081495 115.372525,61.7599626 115.637782,61.1840748 L118.839663,54.3244486 C119.269713,53.4628037 119.486545,52.6361495 119.486545,51.8641682 C119.486545,49.8434579 118.26795,48.5881682 116.305624,48.5881682 C115.599475,48.5881682 114.924406,48.8739252 114.181396,49.4869907 L113.792545,49.8077383 L118.358297,40.5148037 C118.59898,40.0205607 118.624277,39.5751589 118.429129,39.259514 C118.269396,39 117.967277,38.8454579 117.621069,38.8454579 C117.224267,38.8454579 116.695921,39.0663364 116.403921,39.6866916 L106.929099,60.3523178 C105.809525,62.7338692 104.586594,63.8900187 103.190921,63.8900187 C102.565723,63.8900187 102.228911,64.4564299 102.228911,64.9893084 C102.228911,65.2524673 102.310584,65.4915701 102.460198,65.6621495 C102.628604,65.8560561 102.881574,65.9573832 103.190921,65.9573832 C106.720218,65.9573832 108.670257,61.6360374 108.881307,61.1432523 L112.259545,53.6654579 C112.899921,52.2964486 114.193683,50.699271 115.736079,50.699271 L115.736079,50.699271 Z" id="Fill-16" sketch:type="MSShapeGroup"></path>
                <path d="M120.999307,58.3279626 L123.368554,53.3155514 C124.859634,50.1051589 126.70198,48.5225607 128.850782,48.5225607 C131.00103,48.5225607 132.22902,49.6218505 132.22902,51.5120748 C132.22902,52.1717944 132.096752,52.7877757 131.877752,53.403028 C130.562307,56.8765794 128.500238,58.6363178 125.69299,58.6363178 C125.429901,58.6363178 124.991178,58.5918505 124.420911,58.4599065 C123.850644,58.2842243 123.45601,58.4599065 123.236287,58.9876822 C122.754198,60.1751776 122.535198,61.0543178 122.535198,61.5820935 C122.535198,62.9890093 123.280376,63.7369346 124.815545,63.7806729 C127.272248,63.7806729 130.035406,61.4064112 132.096752,58.1967477 C134.158822,54.9863551 135.738079,51.3363925 136.615525,48.1704673 C135.167812,47.423271 134.640911,47.1593832 133.588554,46.3239813 C132.536198,45.4441121 132.096752,44.433028 132.096752,43.1580561 C132.096752,41.0914206 133.588554,39.7719813 135.386812,39.7719813 C137.975059,39.7719813 139.466139,42.146243 139.466139,44.8288598 C139.466139,45.136486 139.378683,45.8844112 139.20305,46.9837009 C141.791297,48.5662991 143.150832,50.2808411 142.23002,53.0954019 L138.632782,61.1862617 C138.194059,62.2418131 137.799426,63.7806729 139.466139,63.7806729 C140.387673,63.7806729 141.176941,63.3411028 141.878752,62.3300187 C142.580564,61.3182056 142.580564,61.1862617 143.063376,60.3071215 C143.413921,59.6474019 143.896733,59.4717196 144.554455,59.7356075 C145.212178,59.955028 145.431901,60.4383364 145.168812,61.1425234 C144.686,62.3300187 143.896733,63.4293084 142.887743,64.4841308 C141.878752,65.5396822 140.738218,66.0674579 139.466139,66.0674579 C137.053525,66.0674579 135.825535,64.9681682 135.825535,62.7695888 C135.825535,61.9341869 136.045257,61.098785 136.483257,60.2189159 L139.773317,52.831514 C140.256129,51.6440187 140.080495,50.6766729 139.290505,49.8857383 C138.632782,49.3142243 138.632782,49.3142243 138.282238,50.3253084 C136.483257,55.5141308 133.45701,61.5383551 129.114594,64.5723364 C124.859634,67.5625794 119.815406,65.8473084 120.034406,61.802243 C120.034406,60.8786355 120.341584,59.6911402 120.999307,58.3279626 L120.999307,58.3279626 Z M128.850782,50.8086168 C127.666881,50.6329346 126.614525,51.6440187 125.69299,53.7988598 L125.122723,55.0745607 C124.815545,55.821757 125.122723,56.2175888 126.000168,56.2175888 C127.359703,56.2175888 128.500238,55.2057757 129.333594,53.1836075 C129.94795,51.7322243 129.772317,50.9405607 128.850782,50.8086168 L128.850782,50.8086168 Z M134.466,43.1580561 C134.466,43.9052523 135.167812,44.6531776 136.615525,45.4885794 C137.141703,45.708 137.185069,45.6205234 137.185069,44.9170654 C137.185069,43.3774766 136.571436,42.0587664 135.386812,42.0587664 C134.904723,42.0587664 134.466,42.4545981 134.466,43.1135888 L134.466,43.1580561 L134.466,43.1580561 Z" id="Fill-17" sketch:type="MSShapeGroup"></path>
                <path d="M124.635574,66.1942991 C123.129317,66.1942991 121.822545,65.6847477 120.954495,64.7604112 C120.218713,63.9774953 119.863832,62.9518318 119.926713,61.7964112 C119.92599,60.8210467 120.263525,59.6029346 120.901733,58.2805794 L123.270257,53.2681682 C124.767119,50.0461121 126.644881,48.412486 128.850782,48.412486 C131.066802,48.412486 132.337436,49.5423925 132.337436,51.5120748 C132.337436,52.1353458 132.220347,52.7666355 131.980386,53.4409346 C130.646149,56.9611402 128.531317,58.7456636 125.69299,58.7456636 C125.360515,58.7456636 124.887822,58.6800561 124.396337,58.5670654 C123.853535,58.3994019 123.534792,58.553215 123.337475,59.0299626 C122.889356,60.1299813 122.643614,61.0360935 122.643614,61.5813645 C122.643614,62.946 123.354822,63.6290467 124.818436,63.6713271 C127.058307,63.6713271 129.813515,61.5507477 132.006406,58.136972 C133.92898,55.1438131 135.559554,51.5361308 136.486871,48.2265981 L136.455792,48.2112897 C135.073129,47.4968972 134.554901,47.2300935 133.521337,46.41 C132.474762,45.5359626 131.988337,44.5030093 131.988337,43.1580561 C131.988337,41.132972 133.41798,39.6619065 135.386812,39.6619065 C138.136238,39.6619065 139.574554,42.2614206 139.574554,44.8288598 C139.574554,45.1488785 139.48204,45.9121121 139.321584,46.9282991 C141.508693,48.2761682 143.368386,49.9673832 142.332653,53.1296636 L138.731802,61.2314579 C138.326327,62.2068224 138.249713,62.9000748 138.50702,63.2893458 C138.67398,63.543028 138.996337,63.6713271 139.466139,63.6713271 C140.386228,63.6713271 141.124901,63.2251963 141.789851,62.2673271 C142.293624,61.542 142.428782,61.281028 142.652119,60.8502056 C142.736683,60.6854579 142.834257,60.4981121 142.968693,60.2539065 C143.340921,59.5511776 143.872158,59.3448785 144.594931,59.6335514 C144.937525,59.748 145.175317,59.9368037 145.29602,60.191215 C145.423228,60.4609346 145.414554,60.7940748 145.27,61.1811589 C144.808871,62.3154393 144.056465,63.4198318 142.965802,64.5606729 C141.940188,65.6329907 140.762792,66.1768037 139.466139,66.1768037 C136.978356,66.1768037 135.717119,65.0301308 135.717119,62.7688598 C135.717119,61.9232523 135.936119,61.073271 136.386406,60.1700748 L139.67502,52.7863178 C140.133257,51.6585981 139.982921,50.7342617 139.214614,49.9630093 C138.989832,49.7683738 138.807693,49.6094579 138.728188,49.6094579 C138.645069,49.6094579 138.530149,49.9411402 138.384149,50.361028 C137.039792,54.2384299 134.056911,61.2525981 129.17603,64.662 C127.75,65.6643364 126.180139,66.1942991 124.635574,66.1942991 L124.635574,66.1942991 Z M128.850782,48.6319065 C126.736673,48.6319065 124.924683,50.2232523 123.466129,53.3614766 L121.097604,58.3753458 C120.473129,59.6685421 120.143545,60.8531215 120.143545,61.801514 C120.083554,62.9022617 120.418198,63.8717944 121.111337,64.610243 C121.938188,65.4908411 123.189307,65.9756075 124.635574,65.9756075 C126.13605,65.9756075 127.663267,65.4594953 129.052436,64.4826729 C133.882,61.1082617 136.843921,54.1422056 138.179604,50.2888598 C138.40005,49.6531963 138.491119,49.3907664 138.728188,49.3907664 C138.887921,49.3907664 139.046208,49.5278131 139.361337,49.8026355 C140.193248,50.6365794 140.363822,51.6673458 139.873782,52.8723364 L136.582277,60.2641121 C136.145,61.1403364 135.93395,61.958243 135.93395,62.7688598 C135.93395,64.9149533 137.089663,65.9573832 139.466139,65.9573832 C140.701356,65.9573832 141.826713,65.4368972 142.80896,64.4075888 C143.880109,63.2886168 144.619505,62.2068224 145.068347,61.100972 C145.190495,60.7743925 145.202059,60.4988411 145.100871,60.2859813 C145.006188,60.086972 144.811762,59.9360748 144.520485,59.8391215 C143.891673,59.5861682 143.480416,59.7538318 143.158059,60.3588785 C143.025069,60.6023551 142.928941,60.788243 142.844376,60.9508037 C142.624653,61.3750654 142.479376,61.6557196 141.967653,62.3927103 C141.26801,63.4008785 140.449832,63.8900187 139.466139,63.8900187 C138.919723,63.8900187 138.535931,63.7289159 138.326327,63.4103551 C138.027099,62.9562056 138.096485,62.1937009 138.53304,61.1447103 L142.130277,53.0502056 C142.933277,50.5979439 142.070287,48.8644486 139.146673,47.0770093 L139.084515,47.0391028 L139.095356,46.9669346 C139.262317,45.9245047 139.357723,45.1459626 139.357723,44.8288598 C139.357723,42.3700374 137.993851,39.8813271 135.386812,39.8813271 C133.543743,39.8813271 132.205891,41.2598131 132.205891,43.1580561 C132.205891,44.433028 132.66702,45.4120374 133.657941,46.2401495 C134.672713,47.0449346 135.185158,47.3095514 136.554812,48.0166542 L136.743455,48.1136075 L136.719604,48.1996262 C135.790842,51.5536262 134.139307,55.2181682 132.188545,58.2557944 C129.956624,61.7315327 127.131307,63.8900187 124.815545,63.8900187 C123.229059,63.8448224 122.426059,63.0684673 122.426059,61.5813645 C122.426059,61.0011028 122.671802,60.0891589 123.136545,58.9461308 C123.376505,58.3658692 123.826792,58.161028 124.452713,58.3556636 C125.121277,58.5102056 125.542653,58.526243 125.69299,58.526243 C128.432297,58.526243 130.478465,56.7898318 131.776564,53.3643925 C132.010743,52.7075888 132.119881,52.1178505 132.119881,51.5120748 C132.119881,49.6808972 130.928752,48.6319065 128.850782,48.6319065 L128.850782,48.6319065 Z M126.000168,56.3276636 C125.503624,56.3276636 125.16898,56.2030093 125.006356,55.9580748 C124.857465,55.7328224 124.863248,55.4215514 125.02298,55.0322804 L125.594693,53.7543925 C126.537188,51.5485234 127.637248,50.5221308 128.866683,50.700729 C129.248307,50.7554019 129.517901,50.9194206 129.667515,51.1869533 C129.908198,51.6185047 129.832307,52.285514 129.433337,53.2266168 C128.585525,55.2837757 127.430535,56.3276636 126.000168,56.3276636 L126.000168,56.3276636 Z M128.589861,50.8982804 C127.568584,50.8982804 126.627535,51.8896822 125.792733,53.8425981 L125.221743,55.119028 C125.092366,55.4339439 125.080802,55.6759626 125.18705,55.8370654 C125.304139,56.0142056 125.58602,56.108243 126.000168,56.108243 C127.334406,56.108243 128.422901,55.1102804 129.233851,53.1413271 C129.599574,52.2782243 129.681248,51.6564112 129.478871,51.2941121 C129.362505,51.0856262 129.152178,50.9624299 128.835604,50.9172336 C128.753208,50.9048411 128.670089,50.8982804 128.589861,50.8982804 L128.589861,50.8982804 Z M136.978356,45.7036262 L136.978356,45.7036262 C136.885119,45.7036262 136.771644,45.6715514 136.573604,45.5891776 C135.05795,44.7158692 134.357584,43.9453458 134.357584,43.1580561 L134.357584,43.1143178 C134.357584,42.3576449 134.888099,41.9486916 135.386812,41.9486916 C136.704426,41.9486916 137.294208,43.4394393 137.294208,44.9163364 C137.294208,45.1743925 137.287703,45.3464299 137.256624,45.4659813 C137.215426,45.6241682 137.121465,45.7036262 136.978356,45.7036262 L136.978356,45.7036262 Z M135.386812,42.1681121 C134.983505,42.1681121 134.574416,42.4925047 134.574416,43.1143178 L134.574416,43.1580561 C134.574416,43.8491215 135.259604,44.5802804 136.66901,45.3930841 C136.766584,45.4324486 136.901743,45.4856636 136.978356,45.4856636 C137.00799,45.4856636 137.027505,45.4856636 137.04702,45.4098505 C137.072317,45.3143551 137.076653,45.1496075 137.076653,44.9163364 C137.076653,43.5480561 136.554812,42.1681121 135.386812,42.1681121 L135.386812,42.1681121 Z" id="Fill-18" sketch:type="MSShapeGroup"></path>
                <path d="M133.767079,22.5711589 C133.192475,22.5711589 132.72701,22.1053458 132.72701,21.5294579 L132.72701,14.4934206 C132.72701,13.9182617 133.192475,13.4517196 133.767079,13.4517196 C134.341683,13.4517196 134.807871,13.9182617 134.807871,14.4934206 L134.807871,21.5294579 C134.807871,22.1053458 134.341683,22.5711589 133.767079,22.5711589" id="Fill-19" sketch:type="MSShapeGroup"></path>
                <path d="M133.767079,22.6805047 C133.133931,22.6805047 132.617871,22.1643925 132.617871,21.5301869 L132.617871,14.4934206 C132.617871,13.859215 133.133931,13.3423738 133.767079,13.3423738 C134.400228,13.3423738 134.916287,13.859215 134.916287,14.4934206 L134.916287,21.5301869 C134.916287,22.1643925 134.400228,22.6805047 133.767079,22.6805047 L133.767079,22.6805047 Z M133.767079,13.5610654 C133.253188,13.5610654 132.835426,13.9794953 132.835426,14.4934206 L132.835426,21.5301869 C132.835426,22.0441121 133.253188,22.4625421 133.767079,22.4625421 C134.28097,22.4625421 134.698733,22.0441121 134.698733,21.5301869 L134.698733,14.4934206 C134.698733,13.9794953 134.28097,13.5610654 133.767079,13.5610654 L133.767079,13.5610654 Z" id="Fill-20" sketch:type="MSShapeGroup"></path>
                <path d="M137.281198,19.0531402 L130.25296,19.0531402 C129.678356,19.0531402 129.212168,18.5865981 129.212168,18.0121682 C129.212168,17.4362804 129.678356,16.9704673 130.25296,16.9704673 L137.281198,16.9704673 C137.855802,16.9704673 138.32199,17.4362804 138.32199,18.0121682 C138.32199,18.5865981 137.855802,19.0531402 137.281198,19.0531402" id="Fill-21" sketch:type="MSShapeGroup"></path>
                <path d="M137.281921,19.162486 L130.25296,19.162486 C129.619812,19.162486 129.103752,18.6463738 129.103752,18.0121682 C129.103752,17.3772336 129.619812,16.8611215 130.25296,16.8611215 L137.281921,16.8611215 C137.915069,16.8611215 138.430406,17.3772336 138.430406,18.0121682 C138.430406,18.6463738 137.915069,19.162486 137.281921,19.162486 L137.281921,19.162486 Z M130.25296,17.0798131 C129.739069,17.0798131 129.321307,17.497514 129.321307,18.0121682 C129.321307,18.5260935 129.739069,18.9437944 130.25296,18.9437944 L137.281921,18.9437944 C137.795089,18.9437944 138.213574,18.5260935 138.213574,18.0121682 C138.213574,17.497514 137.795089,17.0798131 137.281921,17.0798131 L130.25296,17.0798131 L130.25296,17.0798131 Z" id="Fill-22" sketch:type="MSShapeGroup"></path>
                <path d="M135.587743,18.0114393 C135.587743,17.004 134.771733,16.1875514 133.765634,16.1875514 C132.759535,16.1875514 131.943525,17.004 131.943525,18.0114393 C131.943525,19.0188785 132.759535,19.8360561 133.765634,19.8360561 C134.771733,19.8360561 135.587743,19.0188785 135.587743,18.0114393" id="Fill-23" sketch:type="MSShapeGroup"></path>
                <path d="M133.765634,19.9454019 C132.701713,19.9454019 131.834386,19.0779252 131.834386,18.0121682 C131.834386,16.9456822 132.701713,16.0782056 133.765634,16.0782056 C134.830277,16.0782056 135.696158,16.9456822 135.696158,18.0121682 C135.696158,19.0779252 134.830277,19.9454019 133.765634,19.9454019 L133.765634,19.9454019 Z M133.765634,16.2968972 C132.82097,16.2968972 132.051941,17.0659626 132.051941,18.0121682 C132.051941,18.9576449 132.82097,19.7267103 133.765634,19.7267103 C134.710297,19.7267103 135.478604,18.9576449 135.478604,18.0121682 C135.478604,17.0659626 134.710297,16.2968972 133.765634,16.2968972 L133.765634,16.2968972 Z" id="Fill-24" sketch:type="MSShapeGroup"></path>
                <path d="M13.3712871,15.107215 C12.7959604,15.107215 12.330495,14.6406729 12.330495,14.065514 L12.330495,7.02947664 C12.330495,6.45431776 12.7959604,5.9877757 13.3712871,5.9877757 C13.9458911,5.9877757 14.4113564,6.45431776 14.4113564,7.02947664 L14.4113564,14.065514 C14.4113564,14.6406729 13.9458911,15.107215 13.3712871,15.107215" id="Fill-25" sketch:type="MSShapeGroup"></path>
                <path d="M13.3712871,15.2165607 C12.7374158,15.2165607 12.2220792,14.7004486 12.2220792,14.065514 L12.2220792,7.02947664 C12.2220792,6.39454206 12.7374158,5.87842991 13.3712871,5.87842991 C14.0044356,5.87842991 14.5197723,6.39454206 14.5197723,7.02947664 L14.5197723,14.065514 C14.5197723,14.7004486 14.0044356,15.2165607 13.3712871,15.2165607 L13.3712871,15.2165607 Z M13.3712871,6.0971215 C12.857396,6.0971215 12.4389109,6.51482243 12.4389109,7.02947664 L12.4389109,14.065514 C12.4389109,14.5794393 12.857396,14.9978692 13.3712871,14.9978692 C13.8844554,14.9978692 14.3029406,14.5794393 14.3029406,14.065514 L14.3029406,7.02947664 C14.3029406,6.51482243 13.8844554,6.0971215 13.3712871,6.0971215 L13.3712871,6.0971215 Z" id="Fill-26" sketch:type="MSShapeGroup"></path>
                <path d="M16.8854059,11.5891963 L9.85716832,11.5891963 C9.28184158,11.5891963 8.81637624,11.1226542 8.81637624,10.5474953 C8.81637624,9.97233645 9.28184158,9.50579439 9.85716832,9.50579439 L16.8854059,9.50579439 C17.4600099,9.50579439 17.9254752,9.97233645 17.9254752,10.5474953 C17.9254752,11.1226542 17.4600099,11.5891963 16.8854059,11.5891963" id="Fill-27" sketch:type="MSShapeGroup"></path>
                <path d="M16.8854059,11.6985421 L9.85716832,11.6985421 C9.22329703,11.6985421 8.7079604,11.1824299 8.7079604,10.5474953 C8.7079604,9.91328972 9.22329703,9.39717757 9.85716832,9.39717757 L16.8854059,9.39717757 C17.5185545,9.39717757 18.0338911,9.91328972 18.0338911,10.5474953 C18.0338911,11.1824299 17.5185545,11.6985421 16.8854059,11.6985421 L16.8854059,11.6985421 Z M9.85716832,9.61514019 C9.34327723,9.61514019 8.92479208,10.0335701 8.92479208,10.5474953 C8.92479208,11.0614206 9.34327723,11.4798505 9.85716832,11.4798505 L16.8854059,11.4798505 C17.399297,11.4798505 17.8170594,11.0614206 17.8170594,10.5474953 C17.8170594,10.0335701 17.399297,9.61514019 16.8854059,9.61514019 L9.85716832,9.61514019 L9.85716832,9.61514019 Z" id="Fill-28" sketch:type="MSShapeGroup"></path>
                <path d="M15.1919505,10.5474953 C15.1919505,9.54005607 14.3759406,8.72360748 13.3691188,8.72360748 C12.3630198,8.72360748 11.5470099,9.54005607 11.5470099,10.5474953 C11.5470099,11.5549346 12.3630198,12.3713832 13.3691188,12.3713832 C14.3759406,12.3713832 15.1919505,11.5549346 15.1919505,10.5474953" id="Fill-29" sketch:type="MSShapeGroup"></path>
                <path d="M13.3698416,12.4814579 C12.305198,12.4814579 11.4393168,11.6139813 11.4393168,10.5474953 C11.4393168,9.48173832 12.305198,8.61426168 13.3698416,8.61426168 C14.4337624,8.61426168 15.2996436,9.48173832 15.2996436,10.5474953 C15.2996436,11.6139813 14.4337624,12.4814579 13.3698416,12.4814579 L13.3698416,12.4814579 Z M13.3698416,8.83295327 C12.4244554,8.83295327 11.6554257,9.60201869 11.6554257,10.5474953 C11.6554257,11.4937009 12.4244554,12.2627664 13.3698416,12.2627664 C14.314505,12.2627664 15.0835347,11.4937009 15.0835347,10.5474953 C15.0835347,9.60201869 14.314505,8.83295327 13.3698416,8.83295327 L13.3698416,8.83295327 Z" id="Fill-30" sketch:type="MSShapeGroup"></path>
                <path d="M98.9417426,30.9966168 C98.3671386,30.9966168 97.9016733,30.5300748 97.9016733,29.9549159 L97.9016733,22.9188785 C97.9016733,22.3429907 98.3671386,21.8771776 98.9417426,21.8771776 C99.5163465,21.8771776 99.9825347,22.3429907 99.9825347,22.9188785 L99.9825347,29.9549159 C99.9825347,30.5300748 99.5163465,30.9966168 98.9417426,30.9966168" id="Fill-31" sketch:type="MSShapeGroup"></path>
                <path d="M98.9417426,31.1052336 C98.3085941,31.1052336 97.7925347,30.5891215 97.7925347,29.9549159 L97.7925347,22.9188785 C97.7925347,22.2839439 98.3085941,21.7678318 98.9417426,21.7678318 C99.5748911,21.7678318 100.090228,22.2839439 100.090228,22.9188785 L100.090228,29.9549159 C100.090228,30.5891215 99.5748911,31.1052336 98.9417426,31.1052336 L98.9417426,31.1052336 Z M98.9417426,21.9865234 C98.4278515,21.9865234 98.0100891,22.4042243 98.0100891,22.9188785 L98.0100891,29.9549159 C98.0100891,30.4688411 98.4278515,30.887271 98.9417426,30.887271 C99.4556337,30.887271 99.873396,30.4688411 99.873396,29.9549159 L99.873396,22.9188785 C99.873396,22.4042243 99.4556337,21.9865234 98.9417426,21.9865234 L98.9417426,21.9865234 Z" id="Fill-32" sketch:type="MSShapeGroup"></path>
                <path d="M102.455861,27.4778692 L95.4276238,27.4778692 C94.8530198,27.4778692 94.3868317,27.0120561 94.3868317,26.4368972 C94.3868317,25.8617383 94.8530198,25.3951963 95.4276238,25.3951963 L102.455861,25.3951963 C103.030465,25.3951963 103.496653,25.8617383 103.496653,26.4368972 C103.496653,27.0120561 103.030465,27.4778692 102.455861,27.4778692" id="Fill-33" sketch:type="MSShapeGroup"></path>
                <path d="M102.455861,27.587215 L95.4276238,27.587215 C94.7944752,27.587215 94.2784158,27.0711028 94.2784158,26.4368972 C94.2784158,25.8019626 94.7944752,25.2858505 95.4276238,25.2858505 L102.455861,25.2858505 C103.08901,25.2858505 103.605069,25.8019626 103.605069,26.4368972 C103.605069,27.0711028 103.08901,27.587215 102.455861,27.587215 L102.455861,27.587215 Z M95.4276238,25.5045421 C94.9137327,25.5045421 94.4959703,25.922243 94.4959703,26.4368972 C94.4959703,26.9508224 94.9137327,27.3685234 95.4276238,27.3685234 L102.455861,27.3685234 C102.969752,27.3685234 103.387515,26.9508224 103.387515,26.4368972 C103.387515,25.922243 102.969752,25.5045421 102.455861,25.5045421 L95.4276238,25.5045421 L95.4276238,25.5045421 Z" id="Fill-34" sketch:type="MSShapeGroup"></path>
                <path d="M100.762406,26.4368972 C100.762406,25.4294579 99.946396,24.6122804 98.940297,24.6122804 C97.934198,24.6122804 97.1181881,25.4294579 97.1181881,26.4368972 C97.1181881,27.4443364 97.934198,28.260785 98.940297,28.260785 C99.946396,28.260785 100.762406,27.4443364 100.762406,26.4368972" id="Fill-35" sketch:type="MSShapeGroup"></path>
                <path d="M98.940297,28.3701308 C97.8756535,28.3701308 97.0097723,27.5026542 97.0097723,26.4368972 C97.0097723,25.3704112 97.8756535,24.5029346 98.940297,24.5029346 C100.004218,24.5029346 100.870822,25.3704112 100.870822,26.4368972 C100.870822,27.5026542 100.004218,28.3701308 98.940297,28.3701308 L98.940297,28.3701308 Z M98.940297,24.7216262 C97.9956337,24.7216262 97.2273267,25.4906916 97.2273267,26.4368972 C97.2273267,27.3823738 97.9956337,28.1514393 98.940297,28.1514393 C99.8849604,28.1514393 100.65399,27.3823738 100.65399,26.4368972 C100.65399,25.4906916 99.8849604,24.7216262 98.940297,24.7216262 L98.940297,24.7216262 Z" id="Fill-36" sketch:type="MSShapeGroup"></path>
                <path d="M55.1092178,24.5678131 L55.0940396,24.5678131 C47.7839208,24.5678131 42.2713366,19.3148411 42.2713366,12.349514 C42.2713366,5.38345794 47.7839208,0.130485981 55.0940396,0.130485981 C55.5725149,0.130485981 55.9953366,0.440299065 56.1384455,0.896635514 C56.2822772,1.35297196 56.1138713,1.85013084 55.7221287,2.1242243 C48.4206832,7.23942056 48.4264653,10.2311215 48.4300792,12.2102804 L48.4300792,12.349514 C48.4300792,14.6931589 49.9240495,19.4445981 55.5110792,22.4516075 C55.9165545,22.6127103 56.2042178,23.0085421 56.2042178,23.4721682 C56.2042178,24.077215 55.7141782,24.5678131 55.1092178,24.5678131 L55.1092178,24.5678131 Z M51.0241089,3.02960748 C47.0987327,4.47588785 44.4606139,8.00702804 44.4606139,12.349514 C44.4606139,16.4689346 46.8356436,19.8586542 50.4321584,21.4303178 C47.4051881,18.4495514 46.2400792,14.9322617 46.2400792,12.349514 L46.2400792,12.2146542 C46.2364653,10.3047477 46.2314059,7.32106542 51.0241089,3.02960748 L51.0241089,3.02960748 Z" id="Fill-37" sketch:type="MSShapeGroup"></path>
                <path d="M55.1092178,24.6771589 L55.0947624,24.6771589 C47.7217624,24.6771589 42.1629208,19.3775327 42.1629208,12.348785 C42.1629208,5.32076636 47.7217624,0.0211401869 55.0947624,0.0211401869 C55.6223861,0.0211401869 56.0835149,0.36011215 56.2425248,0.863831776 C56.4008119,1.36828037 56.216505,1.91136449 55.7835644,2.21461682 C48.529099,7.29700935 48.5341584,10.2537196 48.538495,12.2102804 L48.538495,12.348785 C48.538495,14.6610841 50.0180099,19.370243 55.562396,22.3553832 C56.0134059,22.5332523 56.3126337,22.9735514 56.3126337,23.4721682 C56.3126337,24.1362617 55.7727228,24.6771589 55.1092178,24.6771589 L55.1092178,24.6771589 Z M55.0947624,0.239831776 C47.8453564,0.239831776 42.3790297,5.44542056 42.3790297,12.348785 C42.3790297,19.2528785 47.8453564,24.4584673 55.0947624,24.4584673 L55.1092178,24.4584673 C55.6534653,24.4584673 56.095802,24.0159813 56.095802,23.4721682 C56.095802,23.0639439 55.8507822,22.7038318 55.4713267,22.5536636 C49.8250297,19.5145794 48.3216634,14.7099252 48.3216634,12.348785 L48.3216634,12.2102804 C48.3180495,10.2085234 48.3115446,7.18256075 55.6599703,2.03528972 C56.0148515,1.78671028 56.1651881,1.34276636 56.0350891,0.930168224 C55.9057129,0.517570093 55.5269802,0.239831776 55.0947624,0.239831776 L55.0947624,0.239831776 Z M50.9279802,21.7663738 L50.3887921,21.5309159 C46.6657921,19.9038505 44.352198,16.3851028 44.352198,12.348785 C44.352198,8.04493458 46.8941881,4.43433645 50.9872475,2.92682243 L51.5228218,2.72927103 L51.0963861,3.11125234 C46.3398218,7.37063551 46.3448812,10.2850654 46.348495,12.2139252 L46.348495,12.348785 C46.348495,15.4214019 47.9031782,18.7870654 50.5073267,21.3523178 L50.9279802,21.7663738 L50.9279802,21.7663738 Z M50.5102178,3.35254206 C46.8298614,4.93951402 44.5690297,8.33579439 44.5690297,12.348785 C44.5690297,16.0964299 46.6086931,19.3877383 49.9312772,21.0738505 C47.5425149,18.5290093 46.1316634,15.3084112 46.1316634,12.348785 L46.1316634,12.2139252 C46.1280495,10.3083925 46.1229901,7.45884112 50.5102178,3.35254206 L50.5102178,3.35254206 Z" id="Fill-38" sketch:type="MSShapeGroup"></path>
            </g>
        </g>
    </g>
</svg>